<svg width="169" height="38" viewBox="0 0 169 38" fill="none" xmlns="http://www.w3.org/2000/svg">
<path fill-rule="evenodd" clip-rule="evenodd" d="M168.511 6.4277C168.511 8.22722 167.053 9.68602 165.253 9.68602C163.454 9.68602 161.995 8.22722 161.995 6.4277C161.995 4.62818 163.454 3.16938 165.253 3.16938C167.053 3.16938 168.511 4.62818 168.511 6.4277ZM169 6.4277C169 8.49715 167.322 10.1748 165.253 10.1748C163.184 10.1748 161.506 8.49715 161.506 6.4277C161.506 4.35825 163.184 2.68063 165.253 2.68063C167.322 2.68063 169 4.35825 169 6.4277ZM165.232 5.16335C165.646 5.16335 165.831 5.36817 165.831 5.69376C165.831 6.02461 165.646 6.23993 165.232 6.23993H164.611V5.16335H165.232ZM165.258 4.55417H163.868V8.21978H164.611V6.79135H164.961L165.778 8.21978H166.638L165.752 6.73358C166.346 6.57603 166.595 6.12439 166.595 5.67801C166.595 5.06357 166.15 4.55417 165.258 4.55417Z" fill="#A4B3CB"/>
<path d="M159.703 36.707H152.405L139.258 14.2644V36.707H132.434V2.61511H139.733L152.88 25.0815V2.61511H159.703V36.707Z" fill="white"/>
<path d="M129.025 36.707H105.655V2.61511H129.025V9.43825H112.479V16.2614H123.676V23.0845H112.479V29.8839H129.025V36.707Z" fill="white"/>
<path d="M34.8242 4.32687C34.8242 4.92914 34.7053 5.49179 34.4676 6.01482C34.2457 6.53785 33.9366 6.99748 33.5404 7.39371C33.1442 7.7741 32.6766 8.08316 32.1377 8.3209C31.6147 8.54279 31.052 8.65374 30.4498 8.65374C29.8475 8.65374 29.2769 8.54279 28.738 8.3209C28.215 8.08316 27.7554 7.7741 27.3591 7.39371C26.9788 6.99748 26.6697 6.53785 26.432 6.01482C26.2101 5.49179 26.0991 4.92914 26.0991 4.32687C26.0991 3.74044 26.2101 3.18572 26.432 2.66269C26.6697 2.12381 26.9788 1.66418 27.3591 1.2838C27.7554 0.887563 28.215 0.578501 28.738 0.35661C29.2769 0.11887 29.8475 0 30.4498 0C31.052 0 31.6147 0.11887 32.1377 0.35661C32.6766 0.578501 33.1442 0.887563 33.5404 1.2838C33.9366 1.66418 34.2457 2.12381 34.4676 2.66269C34.7053 3.18572 34.8242 3.74044 34.8242 4.32687ZM33.7068 36.7071H27.169V11.2451H33.7068V36.7071Z" fill="white"/>
<path d="M9.69979 36.707L0 11.2451H7.39371L12.9568 27.1261L18.4962 11.2451H25.9137L16.2139 36.707H9.69979Z" fill="white"/>
<path fill-rule="evenodd" clip-rule="evenodd" d="M62.3221 0.486877H55.9925V11.7482C53.9429 10.4738 51.5237 9.73782 48.9326 9.73782C41.5378 9.73782 35.5431 15.7325 35.5431 23.1273C35.5431 30.5222 41.5378 36.5169 48.9326 36.5169C56.2461 36.5169 62.1901 30.6533 62.32 23.3708H62.3221V23.1273V0.486877ZM55.9925 23.1273C55.9925 19.2283 52.8317 16.0674 48.9326 16.0674C45.0335 16.0674 41.8727 19.2283 41.8727 23.1273C41.8727 27.0264 45.0335 30.1873 48.9326 30.1873C52.8317 30.1873 55.9925 27.0264 55.9925 23.1273Z" fill="white"/>
<path fill-rule="evenodd" clip-rule="evenodd" d="M94.0704 17.2847H64.5124L93.0205 23.9925C91.1841 27.6579 87.393 30.174 83.0142 30.174C78.475 30.174 74.5673 27.47 72.814 23.5849L64.2697 22.0422C65.7302 31.0778 73.5664 37.9776 83.0142 37.9776C93.5014 37.9776 102.003 29.4761 102.003 18.9889C102.003 18.4542 101.981 17.9246 101.938 17.4011L102.003 17.2847H101.928H94.0704ZM100.664 11.9708L91.9818 12.3026C89.9423 9.57172 86.6848 7.8037 83.0142 7.8037C79.0371 7.8037 75.5449 9.8794 73.5616 13.0066L64.8804 13.3383C67.2858 5.61059 74.4948 9.15527e-05 83.0142 9.15527e-05C91.0224 9.15527e-05 97.8728 4.95745 100.664 11.9708Z" fill="white"/>
</svg>
