<svg width="91" height="27" viewBox="0 0 91 27" fill="none" xmlns="http://www.w3.org/2000/svg">
<path d="M32.19 14.27L34.965 6.365H37.155L33.21 17H31.08L27.15 6.365H29.415L32.19 14.27ZM39.6079 17H37.6129V9.62H39.6079V17ZM37.3729 7.205C37.3729 6.865 37.4929 6.575 37.7329 6.335C37.9729 6.085 38.2629 5.96 38.6029 5.96C38.9429 5.96 39.2329 6.08 39.4729 6.32C39.7129 6.56 39.8329 6.855 39.8329 7.205C39.8329 7.535 39.7129 7.82 39.4729 8.06C39.2329 8.3 38.9429 8.42 38.6029 8.42C38.2629 8.42 37.9729 8.3 37.7329 8.06C37.4929 7.82 37.3729 7.535 37.3729 7.205ZM48.0287 6.14V15.665C48.0287 16.155 48.0487 16.6 48.0887 17H46.1837C46.1337 16.75 46.1087 16.465 46.1087 16.145C45.9387 16.455 45.6687 16.705 45.2987 16.895C44.9387 17.085 44.5187 17.18 44.0387 17.18C42.9887 17.18 42.1237 16.815 41.4437 16.085C40.7737 15.345 40.4387 14.415 40.4387 13.295C40.4387 12.205 40.7687 11.29 41.4287 10.55C42.0987 9.81 42.9487 9.44 43.9787 9.44C45.0387 9.44 45.7337 9.745 46.0637 10.355V6.14H48.0287ZM42.4487 13.295C42.4487 13.945 42.6187 14.46 42.9587 14.84C43.2987 15.21 43.7387 15.395 44.2787 15.395C44.8087 15.395 45.2437 15.205 45.5837 14.825C45.9237 14.445 46.0937 13.93 46.0937 13.28C46.0937 12.64 45.9237 12.14 45.5837 11.78C45.2437 11.41 44.8087 11.225 44.2787 11.225C43.7487 11.225 43.3087 11.41 42.9587 11.78C42.6187 12.15 42.4487 12.655 42.4487 13.295ZM51.4379 19.85H49.4429V9.62H51.3779V10.52C51.5579 10.22 51.8479 9.97 52.2479 9.77C52.6479 9.56 53.1129 9.455 53.6429 9.455C54.6929 9.455 55.5229 9.815 56.1329 10.535C56.7429 11.245 57.0479 12.165 57.0479 13.295C57.0479 14.425 56.7229 15.355 56.0729 16.085C55.4329 16.815 54.5979 17.18 53.5679 17.18C52.5879 17.18 51.8779 16.88 51.4379 16.28V19.85ZM54.5579 14.84C54.9079 14.46 55.0829 13.95 55.0829 13.31C55.0829 12.67 54.9079 12.165 54.5579 11.795C54.2179 11.425 53.7829 11.24 53.2529 11.24C52.7229 11.24 52.2829 11.43 51.9329 11.81C51.5829 12.18 51.4079 12.68 51.4079 13.31C51.4079 13.94 51.5829 14.445 51.9329 14.825C52.2829 15.205 52.7229 15.395 53.2529 15.395C53.7829 15.395 54.2179 15.21 54.5579 14.84ZM59.8575 14.855C60.2275 15.225 60.6725 15.41 61.1925 15.41C61.7125 15.41 62.1525 15.225 62.5125 14.855C62.8825 14.485 63.0675 13.97 63.0675 13.31C63.0675 12.65 62.8825 12.135 62.5125 11.765C62.1525 11.395 61.7125 11.21 61.1925 11.21C60.6725 11.21 60.2275 11.395 59.8575 11.765C59.4975 12.135 59.3175 12.65 59.3175 13.31C59.3175 13.97 59.4975 14.485 59.8575 14.855ZM58.4175 10.505C59.1575 9.765 60.0825 9.395 61.1925 9.395C62.3025 9.395 63.2225 9.765 63.9525 10.505C64.6925 11.245 65.0625 12.18 65.0625 13.31C65.0625 14.44 64.6925 15.375 63.9525 16.115C63.2225 16.855 62.3025 17.225 61.1925 17.225C60.0825 17.225 59.1575 16.855 58.4175 16.115C57.6875 15.375 57.3225 14.44 57.3225 13.31C57.3225 12.18 57.6875 11.245 58.4175 10.505ZM67.8823 19.85H65.8873V9.62H67.8223V10.52C68.0023 10.22 68.2923 9.97 68.6923 9.77C69.0923 9.56 69.5573 9.455 70.0873 9.455C71.1373 9.455 71.9673 9.815 72.5773 10.535C73.1873 11.245 73.4923 12.165 73.4923 13.295C73.4923 14.425 73.1673 15.355 72.5173 16.085C71.8773 16.815 71.0423 17.18 70.0123 17.18C69.0323 17.18 68.3223 16.88 67.8823 16.28V19.85ZM71.0023 14.84C71.3523 14.46 71.5273 13.95 71.5273 13.31C71.5273 12.67 71.3523 12.165 71.0023 11.795C70.6623 11.425 70.2273 11.24 69.6973 11.24C69.1673 11.24 68.7273 11.43 68.3773 11.81C68.0273 12.18 67.8523 12.68 67.8523 13.31C67.8523 13.94 68.0273 14.445 68.3773 14.825C68.7273 15.205 69.1673 15.395 69.6973 15.395C70.2273 15.395 70.6623 15.21 71.0023 14.84ZM79.1225 17C79.0825 16.8 79.0625 16.535 79.0625 16.205C78.8725 16.535 78.5875 16.785 78.2075 16.955C77.8375 17.115 77.4425 17.195 77.0225 17.195C76.1525 17.195 75.4675 16.92 74.9675 16.37C74.4675 15.81 74.2175 15.115 74.2175 14.285V9.62H76.2125V13.88C76.2125 14.32 76.3275 14.68 76.5575 14.96C76.7875 15.23 77.1225 15.365 77.5625 15.365C77.9925 15.365 78.3325 15.235 78.5825 14.975C78.8325 14.705 78.9575 14.35 78.9575 13.91V9.62H80.9525V15.665C80.9525 16.135 80.9775 16.58 81.0275 17H79.1225ZM84.3266 19.85H82.3316V9.62H84.2666V10.52C84.4466 10.22 84.7366 9.97 85.1366 9.77C85.5366 9.56 86.0016 9.455 86.5316 9.455C87.5816 9.455 88.4116 9.815 89.0216 10.535C89.6316 11.245 89.9366 12.165 89.9366 13.295C89.9366 14.425 89.6116 15.355 88.9616 16.085C88.3216 16.815 87.4866 17.18 86.4566 17.18C85.4766 17.18 84.7666 16.88 84.3266 16.28V19.85ZM87.4466 14.84C87.7966 14.46 87.9716 13.95 87.9716 13.31C87.9716 12.67 87.7966 12.165 87.4466 11.795C87.1066 11.425 86.6716 11.24 86.1416 11.24C85.6116 11.24 85.1716 11.43 84.8216 11.81C84.4716 12.18 84.2966 12.68 84.2966 13.31C84.2966 13.94 84.4716 14.445 84.8216 14.825C85.1716 15.205 85.6116 15.395 86.1416 15.395C86.6716 15.395 87.1066 15.21 87.4466 14.84Z" fill="white"/>
<path fill-rule="evenodd" clip-rule="evenodd" d="M23 7.53322C23 3.37274 19.6415 0 15.4986 0H7.53478C3.39185 0 0.0333584 3.37274 0.0333584 7.53322V23.1156C-0.32849 28.4891 2.29234 27.2551 6.00457 25.5074C8.33023 24.4123 11.0843 23.1156 13.8016 23.1156H15.5012C19.6441 23.1156 23 19.7429 23 15.5824V7.53322ZM9.44476 8.85484C9.44476 9.94971 8.56095 10.8373 7.4707 10.8373C6.38047 10.8373 5.49664 9.94971 5.49664 8.85484C5.49664 7.75997 6.38047 6.87241 7.4707 6.87241C8.56095 6.87241 9.44476 7.75997 9.44476 8.85484ZM15.2354 10.8373C16.3256 10.8373 17.2094 9.94971 17.2094 8.85484C17.2094 7.75997 16.3256 6.87241 15.2354 6.87241C14.145 6.87241 13.2613 7.75997 13.2613 8.85484C13.2613 9.94971 14.145 10.8373 15.2354 10.8373ZM15.4703 17.1521C16.1084 16.8028 16.3439 16.0002 15.996 15.3592C15.6483 14.7182 14.849 14.4818 14.2108 14.8311C12.8411 15.5807 11.9692 15.856 11.2154 15.8594C10.4785 15.8627 9.6623 15.6062 8.40699 14.8559C7.78242 14.4826 6.97475 14.6885 6.60301 15.3157C6.23128 15.9428 6.43625 16.754 7.06082 17.1272C8.49189 17.9826 9.79809 18.5091 11.2274 18.5027C12.6399 18.4962 13.9782 17.9686 15.4703 17.1521Z" fill="#F8F8F8"/>
</svg>
