<svg width="25" height="25" viewBox="0 0 25 25" fill="none" xmlns="http://www.w3.org/2000/svg">
<path fill-rule="evenodd" clip-rule="evenodd" d="M5.72193 -7.16475e-05H6.00408C4.70773 3.41057 4.04142 7.11031 4.04142 11.5084C4.04142 16.3271 4.83185 20.3125 6.35964 24.0028H5.72193C2.56228 24.0028 -4.3869e-05 21.4441 -4.3869e-05 18.2879V5.71367C-4.3869e-05 2.55857 2.56228 -7.16475e-05 5.72193 -7.16475e-05ZM10.311 -7.16475e-05H18.3134C21.4751 -7.16475e-05 24.0372 2.55857 24.0372 5.71367V18.2879C24.0372 21.4441 21.4751 24.0028 18.3134 24.0028H10.7202C8.99369 20.4146 8.01192 16.4511 8.01192 11.5084C8.01192 7.0114 8.82711 3.34433 10.311 -7.16475e-05ZM13.8002 22.6126C14.0222 22.6126 14.2431 22.5476 14.4409 22.3939C14.7062 22.2175 14.9049 21.9738 14.9049 21.6638C14.9049 21.5101 14.8386 21.334 14.7062 21.1353C12.7616 18.5296 11.5684 15.8817 11.5684 12.0424C11.5684 8.24612 12.7394 5.64125 14.7295 2.9934C14.8607 2.81676 14.9282 2.64042 14.9282 2.48497C14.9282 2.17703 14.7295 1.91207 14.4409 1.73454C14.2643 1.60236 14.0653 1.53612 13.8453 1.53612C13.5791 1.53612 13.2928 1.6686 13.072 1.95652C10.7951 5.00152 9.60073 7.89283 9.60073 12.0424C9.60073 16.2135 10.7951 19.1272 13.049 22.1943C13.2698 22.4801 13.5349 22.6126 13.8002 22.6126ZM18.4204 18.519C18.4204 18.4118 18.3745 18.2887 18.2819 18.1501C16.9274 16.3354 16.0952 14.4907 16.0952 11.8163C16.0952 9.17289 16.9103 7.3582 18.2963 5.51289C18.3889 5.39013 18.4352 5.26618 18.4352 5.15873C18.4352 4.94352 18.2963 4.75981 18.0964 4.63558C17.9735 4.54431 17.8355 4.49809 17.681 4.49809C17.4956 4.49809 17.2957 4.59053 17.1418 4.79131C15.5562 6.91159 14.7239 8.92589 14.7239 11.8163C14.7239 14.7215 15.5562 16.7517 17.1262 18.8878C17.2798 19.0886 17.4661 19.1796 17.6501 19.1796C17.804 19.1796 17.9576 19.1346 18.0964 19.0265C18.2819 18.9035 18.4204 18.7342 18.4204 18.519Z" fill="#253849"/>
</svg>
