<?xml version="1.0" encoding="utf-8"?>
<!-- Generator: Adobe Illustrator 24.2.0, SVG Export Plug-In . SVG Version: 6.00 Build 0)  -->
<svg version="1.1" id="Layer_1" xmlns="http://www.w3.org/2000/svg" xmlns:xlink="http://www.w3.org/1999/xlink" x="0px" y="0px"
	 viewBox="0 0 512 512" style="enable-background:new 0 0 512 512;" xml:space="preserve">
	<g>
		<path class="st1" d="M309.2,168.4c2.8,7.9,10.3,13.1,18.7,13.1c2,0,4.4-0.4,6.4-1.2c10.3-3.6,15.5-15.1,11.9-25.4
			c-6.4-17.9-19.9-31.8-38.9-40.5c-9.5-4.4-21.5,0-26.2,9.5c-4.4,9.5,0,21.5,9.5,26.2C300.4,154.9,306.4,160.9,309.2,168.4z"/>
		<path class="st1" d="M302.4,44.5c-10.7-2-21.1,4.8-23,15.5c-2,10.7,4.8,21.1,15.5,23c44.9,8.7,75.1,38.9,82.6,82.6
			c1.6,9.5,10.3,16.3,19.5,16.3c1.2,0,2,0,3.2-0.4c10.7-2,17.9-12.3,16.3-22.6C406.1,99.3,363.6,56,302.4,44.5z"/>
		<path class="st0" d="M252.4,241.5c-17.9,0-33-14.7-33-33c0-17.9,14.7-33,33-33c10.7,0,19.9-8.7,19.9-19.9
			c0-11.1-8.7-19.9-19.9-19.9c-39.7,0-72.3,32.2-72.3,72.3c0,39.7,32.2,72.3,72.3,72.3s72.3-32.2,72.3-72.3
			c0-10.7-8.7-19.9-19.9-19.9c-10.7,0-19.9,8.7-19.9,19.9C285.3,227.2,270.2,241.5,252.4,241.5z"/>
		<path class="st0" d="M371.5,189.5c-10.7,0-19.9,8.7-19.9,19.9c0,54.8-44.9,99.7-99.7,99.7s-99.7-44.9-99.7-99.7
			s44.9-99.7,99.7-99.7c10.7,0,19.9-8.7,19.9-19.9c0-10.7-8.7-19.9-19.9-19.9c-75.9,0-138.7,62.4-138.7,139.1S175.7,348,252.4,348
			s139.1-62.4,139.1-139.1C391.4,197.8,383.1,189.5,371.5,189.5z"/>
	</g>
</svg>
