<svg width="24" height="16" viewBox="0 0 24 16" fill="none" xmlns="http://www.w3.org/2000/svg">
<path fill-rule="evenodd" clip-rule="evenodd" d="M23.5882 0.784423C22.007 3.36793 18.0085 8.27462 12.7895 8.72199C7.26324 9.1957 4.57904 4.77465 3.94747 2.24835C3.26326 2.14309 1.95801 2.31151 2.21064 3.82729C2.52642 5.72201 4.57904 10.7746 10.4211 12.0378C16.1095 13.2677 21.9475 7.31228 23.9998 3.20839V13.4736C23.9998 14.5781 23.1044 15.4736 21.9998 15.4736H2C0.895432 15.4736 0 14.5781 0 13.4736V2C0 0.895431 0.89543 0 2 0H21.9998C22.6471 0 23.2226 0.307515 23.5882 0.784423Z" fill="#253849"/>
</svg>
