<svg width="24" height="25" viewBox="0 0 24 25" fill="none" xmlns="http://www.w3.org/2000/svg">
<path d="M10.967 0.00890866C6.15453 0.356751 -2.60893 10.7135 0.746774 13.4922L1.5848 14.19C1.35858 14.7847 1.2792 15.4243 1.35248 16.0554C1.54365 17.9146 3.39521 19.4202 5.18584 19.4181C8.46334 26.8267 20.395 26.8384 23.4835 19.5849C23.5812 19.335 24 18.2126 24 17.2231C24 16.2336 23.4267 15.8174 23.0603 15.8174C22.8702 15.1644 22.7473 15.0892 22.5169 14.782C22.656 14.5778 23.3845 13.4451 22.3426 12.3734C21.7521 11.7651 20.5755 11.3456 20.1666 11.2342C20.0817 10.5998 20.4307 7.96522 18.9449 6.61223C20.1248 5.4134 20.816 4.0929 20.8138 2.95864C20.8106 0.778654 18.1276 0.118289 14.763 1.48377L14.0494 1.78078C14.0463 1.77766 12.7597 0.542285 12.7405 0.52562C12.2612 0.115506 11.6545 -0.0407831 10.967 0.00890866ZM11.4047 0.910102C11.5425 0.916653 11.6734 0.937003 11.7946 0.969096C12.1101 1.05659 13.1533 2.24257 13.1533 2.24257C13.1533 2.24257 11.2145 3.29644 9.41747 4.76713C6.99492 6.59715 5.16589 9.25534 4.06985 12.1394C3.20958 12.304 2.44927 12.783 1.98515 13.4454C1.70795 13.2184 1.19176 12.777 1.10148 12.6093C0.363355 11.2261 1.90896 8.54473 2.9912 7.02926C5.49831 3.51986 9.33675 0.811841 11.4047 0.910102ZM14.7879 4.31551C14.8123 4.31343 14.8314 4.33328 14.8335 4.3562C14.8346 4.37078 14.8286 4.38344 14.8169 4.39282C14.6534 4.51676 14.5056 4.66265 14.3793 4.82409C14.3655 4.84284 14.3705 4.86751 14.3896 4.88105C14.3971 4.88626 14.405 4.88814 14.4145 4.88918C15.1134 4.89439 16.0973 5.13418 16.7419 5.48727C16.7855 5.51122 16.7555 5.5933 16.7067 5.58288C12.7579 4.69547 9.7179 6.61668 9.06898 7.07809C9.0488 7.09059 9.02364 7.08364 9.0109 7.06385C9.00028 7.04822 9.00129 7.02961 9.01297 7.01502H9.00883C9.95937 5.93805 11.1302 5.00221 12.1784 4.47622C12.1986 4.46477 12.2227 4.47067 12.2344 4.49046C12.2418 4.50296 12.2418 4.51761 12.2344 4.53115C12.1516 4.67905 11.9908 4.99546 11.9399 5.23501C11.9345 5.25793 11.9497 5.28066 11.973 5.28587C11.9847 5.289 11.9967 5.28602 12.0062 5.27977C12.6583 4.84336 13.7938 4.37592 14.7879 4.31551ZM18.167 7.66803C18.2984 7.68938 18.4257 7.73653 18.5404 7.8084C19.1086 8.17815 19.1869 9.07363 19.2166 9.72878C19.2336 10.1027 19.2795 11.0084 19.2954 11.2667C19.3315 11.8604 19.4911 11.9448 19.814 12.0458C19.9956 12.1042 20.1619 12.148 20.4093 12.2167C21.1591 12.4229 21.444 12.7403 21.7286 13.0101C21.873 13.1497 21.9685 13.33 21.9983 13.5268C22.0864 14.1601 21.6553 14.8345 20.094 15.5448C17.4421 16.752 14.7752 16.3484 14.3896 16.3057C13.2458 16.1546 12.5938 17.6057 13.2799 18.5983C14.565 20.4585 20.2277 19.7121 21.8717 17.4103C21.911 17.3551 21.878 17.32 21.8303 17.3533C19.4587 18.9448 16.3222 19.4808 14.539 18.8017C14.2682 18.6986 13.7015 18.4438 13.6325 17.8741C16.1082 18.6251 17.6629 17.9148 17.6629 17.9148C17.6629 17.9148 17.7784 17.7578 17.6318 17.7724C17.6318 17.7724 15.6024 18.0662 13.6844 17.3777C14.037 16.2549 15.2162 17.717 19.1564 16.6088C20.0241 16.365 21.0067 15.9933 21.8946 15.3048C22.1569 15.5725 22.3792 16.0852 22.4567 16.5498C22.6649 16.5133 23.2653 16.5194 23.106 17.5567C22.919 18.6629 22.4414 19.5615 21.6353 20.3885C21.1318 20.9238 20.5318 21.3635 19.8659 21.6864C19.4952 21.877 19.1097 22.0363 18.7125 22.1644C15.6751 23.1372 12.5629 22.0677 11.5582 19.7701C11.4764 19.5951 11.4101 19.4133 11.357 19.2269C10.929 17.7125 11.293 15.8951 12.4273 14.7515C12.4974 14.6785 12.5684 14.5933 12.5684 14.485C12.5588 14.3923 12.52 14.3046 12.4584 14.2327C12.0612 13.6692 10.6888 12.7069 10.9649 10.8456C11.1635 9.50928 12.3546 8.56791 13.4666 8.62415L13.7507 8.64043C14.2319 8.66855 14.6521 8.72855 15.0493 8.74418C15.7131 8.7723 16.3095 8.67836 17.0157 8.10134C17.2547 7.90657 17.4459 7.73743 17.7687 7.68431C17.9004 7.65202 18.0356 7.64668 18.167 7.66803ZM17.9533 9.9261C17.5997 9.98235 17.5863 10.4136 17.7127 11.0083C17.7839 11.3427 17.9106 11.6267 18.0529 11.8038C18.2281 11.7819 18.4045 11.7819 18.5798 11.8038C18.6743 11.5902 18.6917 11.2242 18.6067 10.8253C18.4804 10.2316 18.307 9.86986 17.9533 9.9261ZM13.898 11.5454C13.5984 11.5808 13.307 11.6902 13.0558 11.8709C12.8859 11.9928 12.7255 12.1614 12.7488 12.2635C12.7966 12.4718 13.3181 12.113 14.0329 12.0703C14.4301 12.0463 14.7592 12.1674 15.0119 12.2757C15.2658 12.3872 15.4212 12.4582 15.4828 12.3957C15.5901 12.2874 15.2848 11.8717 14.7941 11.6654C14.5063 11.5483 14.1977 11.51 13.898 11.5454ZM18.4657 12.3734V12.3754C18.0313 12.3681 18.0147 13.2551 18.4512 13.2623C18.8877 13.2696 18.9033 12.3817 18.4657 12.3734ZM14.5016 12.5625C13.9866 12.6417 13.6491 12.9251 13.7362 13.124C13.7872 13.1428 13.8024 13.1688 14.0308 13.0793C14.3696 12.9543 14.737 12.9173 15.0949 12.9714C15.2606 12.9902 15.3388 13.0012 15.3749 12.945C15.4578 12.8211 15.0518 12.499 14.5016 12.5625ZM17.0012 12.9694C16.9011 12.9809 16.8128 13.0274 16.7647 13.124C16.5719 13.5084 17.381 13.8942 17.5758 13.5146C17.72 13.2279 17.3015 12.935 17.0012 12.9694ZM4.77305 12.9999C5.80345 13.0318 6.81273 13.7454 7.05481 15.2783C7.31289 16.9282 6.78906 18.5351 5.11738 18.4966L5.11946 18.4986C3.82375 18.4643 2.42506 17.32 2.28593 15.9639C2.08878 14.044 3.44824 12.9589 4.77305 12.9999ZM4.69837 13.9581C4.31669 13.9469 3.94969 14.1136 3.74418 14.3365C3.24926 14.8708 3.24865 15.6469 3.46 15.6771C3.70214 15.7083 3.69209 15.3176 3.87901 15.0302C4.09779 14.6989 4.5494 14.604 4.88713 14.8186C4.88926 14.8196 4.89123 14.8206 4.89336 14.8227C5.55183 15.2455 4.96992 15.8104 5.02197 16.4155C5.10056 17.3446 6.06841 17.3263 6.24789 16.9159C6.27126 16.8743 6.26625 16.8232 6.23545 16.7857C6.23757 16.8357 6.27503 16.7154 6.04668 16.7654L6.04461 16.7674C5.9692 16.7851 5.70356 16.8497 5.56337 16.6372C5.26811 16.1915 6.19439 15.5029 5.73346 14.6457C5.47538 14.1593 5.08005 13.9693 4.69837 13.9581Z" fill="#253849"/>
</svg>
