<svg width="23" height="23" viewBox="0 0 23 23" fill="none" xmlns="http://www.w3.org/2000/svg">
<path d="M14.3749 11.505C14.3753 12.3343 14.2257 13.1569 13.9333 13.933C13.157 14.2253 12.3342 14.3751 11.5047 14.3753H11.495C10.6407 14.3742 9.82226 14.218 9.06703 13.9333C8.77447 13.1572 8.62472 12.3345 8.625 11.505V11.495C8.6246 10.6658 8.77405 9.8434 9.06613 9.06739C9.84243 8.77451 10.6653 8.62463 11.4951 8.625H11.5048C12.3344 8.6246 13.1572 8.77445 13.9334 9.0673C14.2258 9.84324 14.3754 10.6657 14.375 11.4949V11.5049L14.3749 11.505ZM22.8403 9.58336H16.1275L20.8738 4.83665C20.5013 4.31332 20.0857 3.822 19.6315 3.36779V3.36743C19.1772 2.91371 18.686 2.49852 18.163 2.12615L13.4163 6.87287V0.160102C12.785 0.0538998 12.1459 0.000348315 11.5057 0L11.4939 0C10.8427 0.000359375 10.2049 0.0557031 9.58336 0.160102V6.87287L4.83665 2.12615C4.31353 2.49842 3.82255 2.91391 3.36887 3.36824L3.36636 3.37004C2.91287 3.82368 2.49789 4.31424 2.1257 4.83665L6.87278 9.58336H0.160102C0.160102 9.58336 0 10.8441 0 11.496V11.504C0 12.1559 0.0552539 12.7947 0.160102 13.4166H6.87287L2.12579 18.1634C2.87254 19.2113 3.78871 20.1275 4.83665 20.8742L9.58336 16.1271V22.8403C10.214 22.9459 10.8522 22.9994 11.4916 23H11.5079C12.1473 22.9994 12.7856 22.946 13.4162 22.8403V16.1271L18.1634 20.8742C18.6863 20.5017 19.1773 20.0864 19.6315 19.6326L19.6326 19.6315C20.0862 19.1773 20.5014 18.6862 20.8738 18.1634L16.1268 13.4166H22.8403C22.9447 12.7958 22.9993 12.1588 23 11.5084V11.4916C22.9993 10.8412 22.9447 10.2042 22.8403 9.58336Z" fill="#253849"/>
</svg>
