<svg width="99" height="99" viewBox="0 0 99 99" fill="none" xmlns="http://www.w3.org/2000/svg">
<path fill-rule="evenodd" clip-rule="evenodd" d="M13.4376 80.1216C5.67639 71.6164 0.954824 60.3874 0.954824 48.0756C0.954824 21.5242 22.903 0 49.9773 0C77.0518 0 99 21.5242 99 48.0756C99 66.8495 88.0229 83.1032 72.023 91.0178C62.2337 96.1132 51.0659 99 39.2108 99C24.6848 99 11.1905 94.6662 0 87.2452C0 87.2452 7.50435 86.4279 13.4357 80.1235L13.4376 80.1216ZM73.0059 71.8688C85.6887 59.2067 85.6887 38.6772 73.0059 26.0148C67.1248 20.1434 59.5496 16.9964 51.8514 16.5705C51.619 10.8039 54.7281 6.90756 54.7432 6.88856L54.7402 6.88918L54.7425 6.88611C45.8948 8.59254 37.446 12.8662 30.5949 19.7064C25.3407 24.952 21.5996 31.136 19.3692 37.7176C19.6957 36.8544 20.0598 36.002 20.4614 35.1634C19.9991 36.3403 19.5814 37.5429 19.2037 38.7733C15.4894 50.0308 18.1111 62.9159 27.0783 71.8688C39.7611 84.5314 60.3235 84.5314 73.0059 71.8688Z" fill="#FF9A03"/>
<path fill-rule="evenodd" clip-rule="evenodd" d="M34.1377 45.5048V49.2758V51.7876C34.1377 54.2948 36.0481 56.3272 38.4051 56.3272C40.762 56.3272 42.6722 54.2948 42.6722 51.7876V49.272V45.5048C42.6722 42.9981 40.762 40.9651 38.4051 40.9651C36.0481 40.9651 34.1377 42.9981 34.1377 45.5048Z" fill="#FF9A03"/>
<path fill-rule="evenodd" clip-rule="evenodd" d="M58.0347 45.5048V49.2758V51.7876C58.0347 54.2948 59.9453 56.3272 62.3018 56.3272C64.6586 56.3272 66.5692 54.2948 66.5692 51.7876V49.272V45.5048C66.5692 42.9981 64.6586 40.9651 62.3018 40.9651C59.9453 40.9651 58.0347 42.9981 58.0347 45.5048Z" fill="#FF9A03"/>
</svg>
