<svg width="100" height="100" viewBox="0 0 100 100" fill="none" xmlns="http://www.w3.org/2000/svg">
<path d="M87.3009 12.7116H87.2942L98.6407 14.9805C99.25 15.1024 99.751 15.5494 99.927 16.1522C100.016 16.4451 100.024 16.7565 99.95 17.0535C99.876 17.3504 99.7231 17.6218 99.5073 17.8387L90.212 27.1449C89.0999 28.2554 87.5927 28.879 86.0214 28.8788H78.3171L58.9548 48.2564C59.3242 49.6518 59.3921 51.1099 59.154 52.5336C58.916 53.9573 58.3774 55.314 57.5742 56.5131C56.771 57.7123 55.7215 58.7264 54.4958 59.488C53.2701 60.2495 51.8962 60.741 50.4658 60.9298C49.0353 61.1185 47.581 61 46.1999 60.5824C44.8187 60.1647 43.5424 59.4574 42.4559 58.5075C41.3694 57.5577 40.4978 56.3871 39.899 55.0738C39.3001 53.7605 38.9879 52.3346 38.9832 50.8911C38.9842 49.3326 39.3434 47.7951 40.0329 46.3976C40.7225 45.0001 41.7241 43.7799 42.9601 42.8313C44.1962 41.8827 45.6337 41.2312 47.1616 40.927C48.6895 40.6228 50.2669 40.6741 51.7718 41.077L71.1408 21.6926V13.9917C71.1408 12.4203 71.7637 10.9099 72.874 9.79915L82.176 0.493015C82.3928 0.277151 82.6641 0.124111 82.9609 0.050169C83.2577 -0.023773 83.5691 -0.0158529 83.8617 0.0730871C84.4643 0.249186 84.9111 0.750389 85.033 1.35996L87.3009 12.7116Z" fill="#FF9A03"/>
<path d="M9.98078 50.0215C9.98764 55.7431 11.2214 61.3967 13.5987 66.6009C15.9761 71.8051 19.4419 76.4389 23.7622 80.1896C28.0825 83.9404 33.1568 86.7209 38.643 88.3436C44.1292 89.9663 49.8995 90.3935 55.5648 89.5963C61.23 88.799 66.6584 86.796 71.4838 83.7222C76.3092 80.6484 80.4193 76.5755 83.5369 71.778C86.6545 66.9806 88.7071 61.5702 89.5562 55.912C90.4053 50.2538 90.0311 44.4792 88.459 38.9779C88.2382 38.3351 88.1506 37.6542 88.2014 36.9765C88.2522 36.2989 88.4404 35.6386 88.7545 35.036C89.0686 34.4334 89.502 33.901 90.0284 33.4713C90.5548 33.0415 91.1631 32.7234 91.8164 32.5363C92.4696 32.3492 93.1541 32.297 93.8282 32.3829C94.5022 32.4688 95.1518 32.6909 95.7372 33.0359C96.3227 33.3809 96.8318 33.8414 97.2336 34.3894C97.6355 34.9374 97.9216 35.5615 98.0745 36.2236C101.119 46.8773 100.54 58.2402 96.4305 68.5297C92.3205 78.8192 84.9113 87.4531 75.3653 93.0769C65.8194 98.7006 54.6768 100.996 43.6856 99.6029C32.6944 98.2099 22.4766 93.2072 14.6352 85.3796C6.80233 77.5394 1.79472 67.3197 0.398591 56.325C-0.997542 45.3302 1.29686 34.1831 6.92156 24.6337C12.5463 15.0843 21.1828 7.67343 31.4751 3.56461C41.7674 -0.544209 53.1327 -1.1183 63.7866 1.93247C65.0552 2.30334 66.1254 3.16133 66.7633 4.31893C67.4013 5.47654 67.5551 6.83963 67.1912 8.11033C66.8273 9.38102 65.9753 10.456 64.8213 11.1003C63.6673 11.7446 62.3052 11.9059 61.0326 11.5489C55.0751 9.83948 48.802 9.53737 42.7078 10.6664C36.6136 11.7955 30.865 14.3248 25.9151 18.055C20.9652 21.7853 16.9493 26.6144 14.1842 32.1618C11.419 37.7091 9.98003 43.823 9.98078 50.0215Z" fill="#FF9A03"/>
<path d="M28.8168 50.8456C28.8172 54.5512 29.8293 58.1865 31.744 61.3592C33.6587 64.5319 36.4032 67.1217 39.6816 68.8492C42.9601 70.5766 46.6479 71.3762 50.3474 71.1617C54.0469 70.9472 57.6176 69.7268 60.6744 67.632C63.7306 65.5319 66.1545 62.6363 67.6841 59.2582C69.2136 55.8801 69.7905 52.1481 69.3523 48.4659C69.2338 47.5723 69.3556 46.6634 69.7052 45.8325C70.0548 45.0017 70.6195 44.2791 71.3411 43.739C72.0628 43.199 72.9154 42.861 73.8111 42.76C74.7068 42.659 75.6132 42.7985 76.4371 43.1642C77.2607 43.5252 77.9739 44.0981 78.5039 44.8247C79.0339 45.5512 79.3618 46.4053 79.454 47.2998C80.1907 53.592 78.9503 59.9575 75.905 65.5127C72.8596 71.0679 68.1605 75.5373 62.4597 78.3006C56.759 81.0639 50.3394 81.984 44.092 80.9332C37.8446 79.8823 32.0792 76.9127 27.5962 72.4365C23.1131 67.9602 20.1348 62.1994 19.0744 55.9536C18.0141 49.7078 18.9244 43.2868 21.679 37.5818C24.4337 31.8769 28.896 27.171 34.4466 24.1172C39.9971 21.0635 46.3607 19.8134 52.654 20.5405C53.3279 20.603 53.9825 20.7994 54.5795 21.1182C55.1764 21.437 55.7038 21.8718 56.1305 22.397C56.5573 22.9222 56.8749 23.5274 57.0648 24.177C57.2547 24.8265 57.3129 25.5075 57.2362 26.1799C57.1595 26.8523 56.9493 27.5026 56.618 28.0927C56.2867 28.6828 55.841 29.2009 55.3068 29.6165C54.7727 30.0321 54.161 30.3369 53.5076 30.513C52.8541 30.6891 52.1721 30.7331 51.5015 30.6422C48.6517 30.3113 45.7642 30.5871 43.0285 31.4513C40.2929 32.3156 37.771 33.7488 35.6286 35.6569C33.4862 37.565 31.7717 39.9047 30.5977 42.5224C29.4237 45.1402 28.8167 47.9766 28.8168 50.8456Z" fill="#FF9A03"/>
</svg>
