<svg width="519" height="390" viewBox="0 0 519 390" fill="none" xmlns="http://www.w3.org/2000/svg">
<g style="mix-blend-mode:color-dodge">
<mask id="mask0_203_49" style="mask-type:alpha" maskUnits="userSpaceOnUse" x="0" y="0" width="519" height="390">
<rect width="519" height="390" rx="19" fill="white"/>
</mask>
<g mask="url(#mask0_203_49)">
<path opacity="0.1" fill-rule="evenodd" clip-rule="evenodd" d="M299.836 251.961C268.164 217.253 248.896 171.429 248.896 121.187C248.896 12.8363 338.463 -75 448.948 -75C559.433 -75 649 12.8363 649 121.187C649 197.8 604.205 264.128 538.912 296.426C498.964 317.22 453.39 329 405.012 329C345.734 329 290.666 311.314 245 281.031C245 281.031 275.624 277.696 299.828 251.969L299.836 251.961ZM542.923 218.283C594.679 166.611 594.679 82.8341 542.923 31.1615C518.924 7.20142 488.01 -5.64097 456.595 -7.37914C455.649 -30.8755 468.296 -46.7629 468.396 -46.8886L468.384 -46.8866L468.394 -46.8991C432.288 -39.9355 397.81 -22.4957 369.852 5.41804C348.41 26.8243 333.144 52.0599 324.042 78.9182C325.374 75.3957 326.86 71.9174 328.499 68.495C326.612 73.2978 324.908 78.2054 323.367 83.2265C308.209 129.166 318.908 181.748 355.501 218.283C407.258 269.956 491.169 269.956 542.923 218.283ZM384.31 110.697V126.085V136.336C384.31 146.567 392.107 154.861 401.725 154.861C411.343 154.861 419.138 146.567 419.138 136.336V126.07V110.697C419.138 100.467 411.343 92.1711 401.725 92.1711C392.107 92.1711 384.31 100.467 384.31 110.697ZM481.827 126.085V110.697C481.827 100.467 489.624 92.1711 499.241 92.1711C508.858 92.1711 516.655 100.467 516.655 110.697V126.07V136.336C516.655 146.567 508.858 154.861 499.241 154.861C489.624 154.861 481.827 146.567 481.827 136.336V126.085Z" fill="#C1C1C1" fill-opacity="0.5"/>
</g>
</g>
</svg>
