<svg width="519" height="390" viewBox="0 0 519 390" fill="none" xmlns="http://www.w3.org/2000/svg">
<g style="mix-blend-mode:color-dodge" opacity="0.3">
<mask id="mask0_210_89" style="mask-type:alpha" maskUnits="userSpaceOnUse" x="0" y="0" width="519" height="390">
<rect width="519" height="390" rx="19" fill="white"/>
</mask>
<g mask="url(#mask0_210_89)">
<path opacity="0.1" fill-rule="evenodd" clip-rule="evenodd" d="M285.731 126.077C285.756 146.56 290.172 166.8 298.683 185.431C307.194 204.062 319.602 220.651 335.069 234.079C350.535 247.507 368.701 257.461 388.342 263.27C407.982 269.079 428.64 270.609 448.922 267.755C469.203 264.901 488.637 257.73 505.912 246.725C523.187 235.721 537.901 221.14 549.062 203.965C560.223 186.79 567.572 167.421 570.611 147.165C573.651 126.908 572.311 106.236 566.683 86.5408C565.893 84.2398 565.579 81.8021 565.761 79.376C565.943 76.95 566.617 74.5863 567.741 72.4289C568.865 70.2715 570.417 68.3656 572.302 66.8271C574.186 65.2886 576.364 64.1497 578.703 63.4799C581.041 62.81 583.492 62.6231 585.905 62.9306C588.318 63.2382 590.643 64.0336 592.739 65.2685C594.835 66.5035 596.658 68.1521 598.096 70.1141C599.535 72.076 600.559 74.3102 601.107 76.6806C612.005 114.821 609.935 155.5 595.221 192.336C580.507 229.173 553.983 260.082 519.808 280.215C485.633 300.348 445.743 308.566 406.394 303.578C367.046 298.591 330.466 280.682 302.394 252.659C274.352 224.591 256.425 188.005 251.427 148.643C246.429 109.282 254.643 69.3754 274.779 35.1886C294.916 1.00178 325.834 -25.5291 362.681 -40.2387C399.527 -54.9483 440.215 -57.0035 478.356 -46.0817C482.897 -44.754 486.729 -41.6824 489.013 -37.5382C491.297 -33.394 491.847 -28.5141 490.545 -23.965C489.242 -19.4159 486.191 -15.5675 482.06 -13.2608C477.929 -10.9542 473.052 -10.3767 468.497 -11.6548C447.169 -17.7746 424.711 -18.8562 402.894 -14.8142C381.077 -10.7722 360.497 -1.71717 342.776 11.6371C325.055 24.9913 310.679 42.2797 300.779 62.1391C290.88 81.9987 285.729 103.886 285.731 126.077ZM562.537 -7.49265H562.513L603.133 0.630241C605.315 1.06669 607.108 2.66703 607.738 4.82505C608.057 5.87334 608.085 6.98832 607.82 8.05145C607.556 9.11456 607.008 10.0861 606.236 10.8627L572.959 44.1786C568.977 48.1544 563.581 50.3869 557.956 50.386H530.375L461.058 119.758C462.38 124.753 462.623 129.973 461.771 135.07C460.919 140.167 458.991 145.024 456.115 149.317C453.24 153.61 449.483 157.24 445.095 159.967C440.707 162.693 435.788 164.453 430.667 165.129C425.546 165.804 420.34 165.38 415.395 163.885C410.451 162.39 405.881 159.857 401.992 156.457C398.102 153.057 394.982 148.866 392.838 144.164C390.694 139.463 389.576 134.358 389.559 129.19C389.563 123.611 390.849 118.107 393.318 113.103C395.786 108.1 399.372 103.732 403.797 100.336C408.222 96.9401 413.368 94.6076 418.838 93.5186C424.308 92.4296 429.955 92.6133 435.342 94.0556L504.684 24.6594V-2.90988C504.684 -8.53529 506.914 -13.9425 510.888 -17.919L544.19 -51.235C544.966 -52.0078 545.937 -52.5557 547 -52.8204C548.062 -53.0851 549.177 -53.0568 550.225 -52.7384C552.382 -52.1079 553.981 -50.3136 554.418 -48.1313L562.537 -7.49265ZM363.643 166.666C356.789 155.308 353.165 142.293 353.164 129.027C353.164 118.756 355.337 108.602 359.54 99.2303C363.743 89.8589 369.881 81.4827 377.55 74.6518C385.22 67.8209 394.249 62.6899 404.042 59.5958C413.836 56.5017 424.173 55.5145 434.375 56.699C436.776 57.0244 439.218 56.8671 441.557 56.2366C443.896 55.6061 446.086 54.5149 447.998 53.027C449.911 51.5392 451.506 49.6846 452.693 47.572C453.879 45.4593 454.631 43.1312 454.906 40.724C455.18 38.3168 454.972 35.879 454.292 33.5535C453.612 31.2281 452.475 29.0616 450.947 27.1813C449.419 25.301 447.532 23.7446 445.395 22.6033C443.257 21.462 440.914 20.7588 438.501 20.535C415.971 17.932 393.19 22.4072 373.319 33.3396C353.448 44.272 337.473 61.1192 327.611 81.543C317.749 101.967 314.49 124.954 318.286 147.314C322.082 169.674 332.745 190.298 348.794 206.323C364.844 222.347 385.484 232.979 407.849 236.741C430.215 240.503 453.197 237.209 473.606 227.316C494.015 217.424 510.838 201.423 521.74 181.535C532.642 161.648 537.083 138.859 534.445 116.333C534.115 113.131 532.941 110.073 531.044 107.472C529.147 104.871 526.593 102.82 523.645 101.528C520.695 100.219 517.45 99.7191 514.244 100.081C511.037 100.442 507.985 101.652 505.401 103.586C502.818 105.519 500.796 108.106 499.545 111.08C498.293 114.055 497.857 117.309 498.281 120.508C499.85 133.69 497.785 147.051 492.309 159.144C486.833 171.238 478.156 181.604 467.214 189.122C456.271 196.622 443.488 200.991 430.244 201.759C416.999 202.527 403.797 199.664 392.06 193.48C380.324 187.296 370.498 178.024 363.643 166.666Z" fill="#FF9A03"/>
</g>
</g>
</svg>
