<svg width="95" height="95" viewBox="0 0 95 95" fill="none" xmlns="http://www.w3.org/2000/svg">
<path fill-rule="evenodd" clip-rule="evenodd" d="M15.8333 10.5556C14.4336 10.5556 13.0912 11.1116 12.1014 12.1014C11.1116 13.0912 10.5556 14.4336 10.5556 15.8333V26.3889C10.5556 29.3037 8.19261 31.6667 5.27778 31.6667C2.36294 31.6667 0 29.3037 0 26.3889V15.8333C0 11.6341 1.66815 7.6068 4.63748 4.63748C7.6068 1.66815 11.6341 0 15.8333 0H26.3889C29.3037 0 31.6667 2.36294 31.6667 5.27778C31.6667 8.19261 29.3037 10.5556 26.3889 10.5556H15.8333ZM63.3333 5.27778C63.3333 2.36294 65.6963 0 68.6111 0H79.1667C83.3659 0 87.3932 1.66815 90.3625 4.63748C93.3318 7.6068 95 11.6341 95 15.8333V26.3889C95 29.3037 92.6371 31.6667 89.7222 31.6667C86.8074 31.6667 84.4444 29.3037 84.4444 26.3889V15.8333C84.4444 14.4336 83.8884 13.0912 82.8986 12.1014C81.9088 11.1116 80.5664 10.5556 79.1667 10.5556H68.6111C65.6963 10.5556 63.3333 8.19261 63.3333 5.27778ZM47.5 26.7241C44.7451 26.7241 42.038 27.4428 39.6459 28.8094C37.2539 30.1759 35.2598 32.1429 33.8607 34.516C32.4616 36.8891 31.7058 39.5862 31.6681 42.3408C31.6316 45.0093 32.2702 47.6422 33.5226 49.9956L47.5 69.9633L61.4774 49.9956C62.7298 47.6422 63.3684 45.0093 63.3319 42.3408C63.2942 39.5862 62.5384 36.8891 61.1393 34.516C59.7402 32.1429 57.7461 30.1759 55.3541 28.8094C52.962 27.4428 50.2549 26.7241 47.5 26.7241ZM34.4099 19.644C38.3966 17.3665 42.9086 16.1685 47.5 16.1685C52.0914 16.1685 56.6034 17.3665 60.5901 19.644C64.5768 21.9216 67.9003 25.1999 70.2322 29.1551C72.564 33.1103 73.8236 37.6055 73.8864 42.1964C73.9492 46.7874 72.8131 51.3154 70.5903 55.3329C70.5005 55.4951 70.4023 55.6525 70.2959 55.8044L51.8237 82.1933C50.8361 83.6042 49.2222 84.4444 47.5 84.4444C45.7778 84.4444 44.1639 83.6042 43.1763 82.1933L24.7041 55.8044C24.5977 55.6525 24.4995 55.4951 24.4097 55.3329C22.1869 51.3154 21.0508 46.7874 21.1136 42.1964C21.1764 37.6055 22.4359 33.1103 24.7678 29.1551C27.0997 25.1999 30.4232 21.9216 34.4099 19.644ZM47.5 36.9444C50.4148 36.9444 52.7778 39.3074 52.7778 42.2222V42.275C52.7778 45.1898 50.4148 47.5528 47.5 47.5528C44.5852 47.5528 42.2222 45.1898 42.2222 42.275V42.2222C42.2222 39.3074 44.5852 36.9444 47.5 36.9444ZM5.27778 63.3333C8.19261 63.3333 10.5556 65.6963 10.5556 68.6111V79.1667C10.5556 80.5664 11.1116 81.9088 12.1014 82.8986C13.0912 83.8884 14.4336 84.4444 15.8333 84.4444H26.3889C29.3037 84.4444 31.6667 86.8074 31.6667 89.7222C31.6667 92.6371 29.3037 95 26.3889 95H15.8333C11.6341 95 7.6068 93.3318 4.63748 90.3625C1.66815 87.3932 0 83.3659 0 79.1667V68.6111C0 65.6963 2.36294 63.3333 5.27778 63.3333ZM89.7222 63.3333C92.6371 63.3333 95 65.6963 95 68.6111V79.1667C95 83.3659 93.3318 87.3932 90.3625 90.3625C87.3932 93.3318 83.3659 95 79.1667 95H68.6111C65.6963 95 63.3333 92.6371 63.3333 89.7222C63.3333 86.8074 65.6963 84.4444 68.6111 84.4444H79.1667C80.5664 84.4444 81.9088 83.8884 82.8986 82.8986C83.8884 81.9088 84.4444 80.5664 84.4444 79.1667V68.6111C84.4444 65.6963 86.8074 63.3333 89.7222 63.3333Z" fill="#33D1F3"/>
</svg>
