<svg width="326" height="235" viewBox="0 0 326 235" fill="none" xmlns="http://www.w3.org/2000/svg">
  <mask id="mask0_238_681" style="mask-type:alpha" maskUnits="userSpaceOnUse" x="0" y="0" width="326" height="235">
  <rect width="326" height="235" rx="19" fill="white"/>
  </mask>
  <g mask="url(#mask0_238_681)">
  <path opacity="0.1" fill-rule="evenodd" clip-rule="evenodd" d="M156.512 217.704C135.424 194.594 122.594 164.083 122.594 130.63C122.594 58.485 182.231 0 255.797 0C329.363 0 389 58.485 389 130.63C389 181.642 359.173 225.806 315.699 247.311C289.1 261.156 258.755 269 226.542 269C187.073 269 150.407 257.224 120 237.06C120 237.06 140.391 234.84 156.507 217.709L156.512 217.704ZM318.369 195.28C352.831 160.875 352.831 105.092 318.369 70.6867C302.39 54.7331 281.806 46.1821 260.889 45.0248C260.259 29.3799 268.68 18.8014 268.747 18.7177L268.738 18.7191L268.745 18.7107C244.704 23.3474 221.747 34.9596 203.132 53.5457C188.855 67.7988 178.69 84.6017 172.629 102.485C173.517 100.14 174.506 97.8237 175.597 95.5449C174.341 98.7428 173.206 102.011 172.18 105.354C162.087 135.942 169.211 170.953 193.576 195.28C228.038 229.686 283.909 229.686 318.369 195.28ZM212.759 123.645V133.891V140.716C212.759 147.529 217.95 153.051 224.354 153.051C230.758 153.051 235.948 147.529 235.948 140.716V133.881V123.645C235.948 116.833 230.758 111.309 224.354 111.309C217.95 111.309 212.759 116.833 212.759 123.645ZM277.69 133.891V123.645C277.69 116.833 282.881 111.309 289.284 111.309C295.688 111.309 300.879 116.833 300.879 123.645V133.881V140.716C300.879 147.529 295.688 153.051 289.284 153.051C282.881 153.051 277.69 147.529 277.69 140.716V133.891Z" fill="#C1C1C1"/>
  </g>
</svg>
