<svg width="326" height="235" viewBox="0 0 326 235" fill="none" xmlns="http://www.w3.org/2000/svg">
<mask id="mask0_238_705" style="mask-type:alpha" maskUnits="userSpaceOnUse" x="0" y="0" width="326" height="235">
<rect width="326" height="235" rx="19" fill="#00309A"/>
</mask>
<g mask="url(#mask0_238_705)">
<path opacity="0.1" fill-rule="evenodd" clip-rule="evenodd" d="M199.182 23.0754C194.895 15.2674 195.114 5.8309 195.327 -3.29988C195.373 -5.26715 195.418 -7.22023 195.418 -9.13976C195.418 -25.0788 182.508 -38 166.582 -38C150.656 -38 137.745 -25.0788 137.745 -9.13976C137.745 -0.591141 141.459 7.08939 147.36 12.374C150.759 15.4176 154.661 18.0245 158.556 20.6261C165.655 25.3686 172.728 30.0938 176.677 37.4159C182.036 47.3532 177.495 59.2668 168.494 66.0768C139.036 88.3668 120 123.727 120 163.536C120 230.971 174.621 285.637 242 285.637C309.379 285.637 364 230.971 364 163.536C364 125.375 346.508 91.3024 319.11 68.912C308.442 60.1935 302.845 45.6695 309.608 33.6616C313.029 27.5894 318.624 23.271 324.235 18.9403C327.333 16.5489 330.436 14.1537 333.181 11.4574C338.512 6.22039 341.818 -1.07321 341.818 -9.13976C341.818 -25.0788 328.908 -38 312.982 -38C297.056 -38 284.145 -25.0788 284.145 -9.13976C284.145 -5.84852 284.343 -2.45144 284.542 0.974854C285.13 11.0738 285.732 21.4265 281.333 30.0711C276.867 38.849 266.996 43.5943 257.229 42.3771C252.24 41.7553 247.157 41.435 242 41.435C239.579 41.435 237.175 41.5056 234.79 41.6447C220.476 42.4797 206.087 35.6515 199.182 23.0754ZM177.673 163.536C177.673 127.98 206.473 99.1555 242 99.1555C277.527 99.1555 306.327 127.98 306.327 163.536C306.327 199.092 277.527 227.917 242 227.917C206.473 227.917 177.673 199.092 177.673 163.536ZM241.587 322.263C224.89 322.505 208.325 320.075 192.504 315.122C177.305 310.363 159.884 315.447 152.43 329.532C144.976 343.617 150.299 361.287 165.245 366.792C189.868 375.861 216.024 380.36 242.421 379.978C268.818 379.595 294.833 374.341 319.184 364.562C333.964 358.627 338.775 340.811 330.916 326.947C323.058 313.084 305.498 308.507 290.442 313.704C274.771 319.113 258.283 322.021 241.587 322.263Z" fill="white"/>
</g>
</svg>
