<svg width="64" height="64" viewBox="0 0 64 64" fill="none" xmlns="http://www.w3.org/2000/svg">
    <path fill-rule="evenodd" clip-rule="evenodd" d="M8.68693 51.7958C3.66959 46.2974 0.61726 39.0383 0.61726 31.0792C0.61726 13.9147 14.806 0 32.3085 0C49.8112 0 64 13.9147 64 31.0792C64 43.2158 56.9037 53.7233 46.5603 58.8398C40.2319 62.1338 33.0123 64 25.3484 64C15.9578 64 7.23428 61.1983 0 56.4009C0 56.4009 4.8513 55.8726 8.68567 51.797L8.68693 51.7958ZM47.1957 46.4606C55.3947 38.275 55.3947 25.0034 47.1957 16.8177C43.3938 13.022 38.4967 10.9876 33.5201 10.7122C33.3699 6.98432 35.3798 4.46549 35.3896 4.45321L35.3876 4.45361L35.3891 4.45163C29.6693 5.55477 24.2075 8.31752 19.7785 12.7395C16.3818 16.1306 13.9633 20.1283 12.5215 24.3831C12.7326 23.8251 12.9679 23.274 13.2275 22.7319C12.9287 23.4927 12.6587 24.2702 12.4145 25.0656C10.0133 32.3432 11.7082 40.6729 17.5052 46.4606C25.7042 54.6465 38.997 54.6465 47.1957 46.4606Z" fill="#33D1F3"/>
    <path fill-rule="evenodd" clip-rule="evenodd" d="M22.069 29.4173V31.8551V33.4789C22.069 35.0997 23.304 36.4136 24.8277 36.4136C26.3513 36.4136 27.5862 35.0997 27.5862 33.4789V31.8527V29.4173C27.5862 27.7968 26.3513 26.4825 24.8277 26.4825C23.304 26.4825 22.069 27.7968 22.069 29.4173Z" fill="#33D1F3"/>
    <path fill-rule="evenodd" clip-rule="evenodd" d="M37.5172 29.4173V31.8551V33.4789C37.5172 35.0997 38.7523 36.4136 40.2758 36.4136C41.7993 36.4136 43.0345 35.0997 43.0345 33.4789V31.8527V29.4173C43.0345 27.7968 41.7993 26.4825 40.2758 26.4825C38.7523 26.4825 37.5172 27.7968 37.5172 29.4173Z" fill="#33D1F3"/>
</svg>
