<svg width="64" height="64" viewBox="0 0 64 64" fill="none" xmlns="http://www.w3.org/2000/svg">
    <path fill-rule="evenodd" clip-rule="evenodd" d="M10.6667 7.11111C9.72367 7.11111 8.8193 7.48571 8.15251 8.15251C7.48571 8.8193 7.11111 9.72367 7.11111 10.6667V17.7778C7.11111 19.7415 5.51923 21.3333 3.55556 21.3333C1.59188 21.3333 0 19.7415 0 17.7778V10.6667C0 7.83769 1.12381 5.12458 3.12419 3.12419C5.12458 1.12381 7.83769 0 10.6667 0H17.7778C19.7415 0 21.3333 1.59188 21.3333 3.55556C21.3333 5.51923 19.7415 7.11111 17.7778 7.11111H10.6667ZM42.6667 3.55556C42.6667 1.59188 44.2585 0 46.2222 0H53.3333C56.1623 0 58.8754 1.12381 60.8758 3.12419C62.8762 5.12458 64 7.83769 64 10.6667V17.7778C64 19.7415 62.4081 21.3333 60.4444 21.3333C58.4808 21.3333 56.8889 19.7415 56.8889 17.7778V10.6667C56.8889 9.72368 56.5143 8.81931 55.8475 8.15251C55.1807 7.48571 54.2763 7.11111 53.3333 7.11111H46.2222C44.2585 7.11111 42.6667 5.51923 42.6667 3.55556ZM32 18.0036C30.1441 18.0036 28.3203 18.4878 26.7088 19.4084C25.0974 20.329 23.754 21.6542 22.8114 23.2529C21.8688 24.8516 21.3597 26.6686 21.3343 28.5243C21.3097 30.322 21.7399 32.0958 22.5836 33.6812L32 47.1332L41.4164 33.6812C42.2601 32.0958 42.6903 30.322 42.6657 28.5243C42.6403 26.6686 42.1312 24.8516 41.1886 23.2529C40.246 21.6542 38.9026 20.329 37.2912 19.4084C35.6797 18.4878 33.8559 18.0036 32 18.0036ZM23.1814 13.2339C25.8672 11.6995 28.9068 10.8925 32 10.8925C35.0932 10.8925 38.1328 11.6995 40.8186 13.2339C43.5044 14.7682 45.7434 16.9768 47.3143 19.6413C48.8853 22.3059 49.7338 25.3342 49.7761 28.4271C49.8184 31.52 49.053 34.5704 47.5556 37.2769C47.4951 37.3862 47.4289 37.4922 47.3573 37.5945L34.9128 55.3723C34.2475 56.3228 33.1602 56.8889 32 56.8889C30.8398 56.8889 29.7525 56.3228 29.0872 55.3723L16.6427 37.5945C16.5711 37.4922 16.5049 37.3862 16.4444 37.2769C14.947 34.5704 14.1816 31.52 14.2239 28.4271C14.2662 25.3342 15.1147 22.3059 16.6857 19.6413C18.2566 16.9768 20.4956 14.7682 23.1814 13.2339ZM32 24.8889C33.9637 24.8889 35.5556 26.4808 35.5556 28.4444V28.48C35.5556 30.4437 33.9637 32.0356 32 32.0356C30.0363 32.0356 28.4444 30.4437 28.4444 28.48V28.4444C28.4444 26.4808 30.0363 24.8889 32 24.8889ZM3.55556 42.6667C5.51923 42.6667 7.11111 44.2585 7.11111 46.2222V53.3333C7.11111 54.2763 7.48571 55.1807 8.15251 55.8475C8.81931 56.5143 9.72368 56.8889 10.6667 56.8889H17.7778C19.7415 56.8889 21.3333 58.4808 21.3333 60.4444C21.3333 62.4081 19.7415 64 17.7778 64H10.6667C7.83769 64 5.12458 62.8762 3.12419 60.8758C1.12381 58.8754 0 56.1623 0 53.3333V46.2222C0 44.2585 1.59188 42.6667 3.55556 42.6667ZM60.4444 42.6667C62.4081 42.6667 64 44.2585 64 46.2222V53.3333C64 56.1623 62.8762 58.8754 60.8758 60.8758C58.8754 62.8762 56.1623 64 53.3333 64H46.2222C44.2585 64 42.6667 62.4081 42.6667 60.4444C42.6667 58.4808 44.2585 56.8889 46.2222 56.8889H53.3333C54.2763 56.8889 55.1807 56.5143 55.8475 55.8475C56.5143 55.1807 56.8889 54.2763 56.8889 53.3333V46.2222C56.8889 44.2585 58.4808 42.6667 60.4444 42.6667Z" fill="#33D1F3"/>
</svg>
