<svg width="65" height="64" viewBox="0 0 65 64" fill="none" xmlns="http://www.w3.org/2000/svg">
<path d="M56.3725 8.13539H56.3681L63.63 9.58753C64.0199 9.66555 64.3405 9.95165 64.4532 10.3374C64.5101 10.5248 64.5152 10.7242 64.4678 10.9142C64.4205 11.1043 64.3226 11.278 64.1846 11.4168L58.2356 17.3727C57.5238 18.0835 56.5592 18.4826 55.5536 18.4824H50.6228L38.2309 30.8841C38.4673 31.7771 38.5108 32.7103 38.3585 33.6215C38.2061 34.5327 37.8614 35.4009 37.3474 36.1684C36.8333 36.9358 36.1617 37.5849 35.3772 38.0723C34.5927 38.5597 33.7135 38.8743 32.798 38.995C31.8825 39.1158 30.9517 39.04 30.0678 38.7727C29.1839 38.5054 28.367 38.0527 27.6717 37.4448C26.9763 36.8369 26.4184 36.0878 26.0352 35.2472C25.652 34.4067 25.4522 33.4941 25.4491 32.5703C25.4498 31.5728 25.6796 30.5889 26.121 29.6945C26.5623 28.8 27.2033 28.0191 27.9944 27.412C28.7855 26.8049 29.7055 26.3879 30.6833 26.1933C31.6612 25.9986 32.6707 26.0314 33.6338 26.2893L46.03 13.8833V8.95466C46.03 7.949 46.4286 6.98235 47.1392 6.27146L53.0925 0.315529C53.2313 0.177377 53.4049 0.0794311 53.5949 0.0321082C53.7848 -0.0152147 53.9841 -0.0101459 54.1714 0.0467757C54.557 0.159479 54.843 0.480249 54.921 0.870375L56.3725 8.13539Z" fill="#33D1F3"/>
<path d="M6.8877 32.0137C6.89209 35.6756 7.68167 39.2939 9.20319 42.6246C10.7247 45.9552 12.9428 48.9209 15.7078 51.3214C18.4728 53.7219 21.7204 55.5014 25.2315 56.5399C28.7427 57.5785 32.4357 57.8518 36.0614 57.3416C39.6872 56.8314 43.1614 55.5494 46.2496 53.5822C49.3379 51.615 51.9684 49.0083 53.9636 45.9379C55.9589 42.8676 57.2726 39.405 57.816 35.7837C58.3594 32.1624 58.1199 28.4667 57.1137 24.9458C56.9725 24.5345 56.9164 24.0987 56.9489 23.665C56.9814 23.2313 57.1018 22.8087 57.3029 22.423C57.5039 22.0374 57.7813 21.6966 58.1182 21.4216C58.4551 21.1466 58.8444 20.943 59.2625 20.8232C59.6806 20.7035 60.1186 20.6701 60.55 20.725C60.9814 20.78 61.3971 20.9222 61.7718 21.143C62.1465 21.3638 62.4724 21.6585 62.7295 22.0092C62.9867 22.36 63.1698 22.7594 63.2677 23.1831C65.216 30.0015 64.8459 37.2737 62.2155 43.859C59.5851 50.4443 54.8432 55.97 48.7338 59.5692C42.6244 63.1684 35.4931 64.6374 28.4588 63.7459C21.4244 62.8543 14.885 59.6526 9.86652 54.643C4.85349 49.6252 1.64862 43.0846 0.755099 36.048C-0.138427 29.0113 1.32999 21.8772 4.9298 15.7656C8.52961 9.65395 14.057 4.91099 20.644 2.28135C27.2311 -0.348294 34.5049 -0.715711 41.3234 1.23678C42.1353 1.47414 42.8202 2.02325 43.2285 2.76412C43.6368 3.50498 43.7353 4.37736 43.5024 5.19061C43.2695 6.00385 42.7242 6.69184 41.9856 7.10421C41.247 7.51657 40.3753 7.6198 39.5609 7.39132C35.7481 6.29727 31.7333 6.10392 27.833 6.82651C23.9327 7.5491 20.2536 9.16788 17.0857 11.5552C13.9177 13.9426 11.3476 17.0332 9.57786 20.5835C7.80814 24.1338 6.88722 28.0467 6.8877 32.0137Z" fill="#33D1F3"/>
<path d="M18.9428 32.5412C18.9431 34.9129 19.5908 37.2395 20.8162 39.27C22.0416 41.3005 23.7981 42.958 25.8963 44.0636C27.9945 45.1691 30.3547 45.6809 32.7224 45.5436C35.09 45.4063 37.3753 44.6252 39.3317 43.2846C41.2876 41.9405 42.839 40.0873 43.8179 37.9253C44.7967 35.7634 45.166 33.3749 44.8855 31.0183C44.8097 30.4464 44.8877 29.8646 45.1114 29.3329C45.3351 28.8012 45.6965 28.3387 46.1584 27.9931C46.6203 27.6474 47.1659 27.4311 47.7392 27.3665C48.3124 27.3018 48.8925 27.3911 49.4198 27.6252C49.9469 27.8562 50.4034 28.2229 50.7426 28.6879C51.0818 29.1528 51.2916 29.6995 51.3506 30.272C51.8221 34.299 51.0282 38.3729 49.0792 41.9282C47.1302 45.4836 44.1228 48.344 40.4743 50.1125C36.8258 51.881 32.7173 52.4698 28.7189 51.7973C24.7206 51.1248 21.0308 49.2242 18.1616 46.3594C15.2925 43.4946 13.3863 39.8077 12.7077 35.8104C12.0291 31.8131 12.6117 27.7036 14.3747 24.0525C16.1376 20.4013 18.9935 17.3895 22.5459 15.4351C26.0982 13.4807 30.1709 12.6807 34.1986 13.146C34.6299 13.186 35.0489 13.3117 35.4309 13.5158C35.813 13.7198 36.1505 13.998 36.4236 14.3342C36.6967 14.6703 36.9 15.0576 37.0215 15.4734C37.143 15.8891 37.1803 16.3249 37.1313 16.7552C37.0822 17.1856 36.9476 17.6018 36.7356 17.9794C36.5236 18.3571 36.2383 18.6887 35.8964 18.9546C35.5546 19.2206 35.1631 19.4157 34.7449 19.5284C34.3267 19.6411 33.8902 19.6693 33.461 19.6111C31.6372 19.3993 29.7891 19.5758 28.0383 20.1289C26.2875 20.6821 24.6735 21.5994 23.3024 22.8205C21.9312 24.0417 20.8339 25.5391 20.0826 27.2145C19.3312 28.8898 18.9428 30.7051 18.9428 32.5412Z" fill="#33D1F3"/>
</svg>
