<svg width="1920" height="194" viewBox="0 0 1920 194" fill="none" xmlns="http://www.w3.org/2000/svg">
<g style="mix-blend-mode:overlay" opacity="0.6">
<path fill-rule="evenodd" clip-rule="evenodd" d="M933.437 2.0485L929.248 1.26586L929.959 0L937.181 1.34908L943.041 0.254268L943.753 1.52013L940.924 2.0485L1958 192.062L1957.29 193.328L1787.59 161.623V162.372L1679.64 162.372L1817.23 192.072L1816.42 193.318L1673.05 162.372H1552.45L1669.56 192.531L1668.61 193.746L1546.79 162.372L1428.18 162.372L1521.91 192.557L1520.78 193.719L1423.45 162.372H1306.05L1377.36 192.602L1375.99 193.674L1302.15 162.372L1190.11 162.372L1239.02 192.685L1237.32 193.591L1186.96 162.372H1060.85L1085.32 192.859L1083.22 193.418L1058.31 162.372L937.877 162.372L937.655 189.697L937.683 193.135L937.627 193.135L937.625 193.396L935.317 193.39L935.347 189.697L935.127 162.626L814.692 162.626L789.776 193.672L787.681 193.113L812.149 162.626H686.039L635.676 193.846L633.985 192.939L682.887 162.626L570.849 162.626L497.006 193.929L495.638 192.857L566.952 162.626L449.548 162.626L352.221 193.973L351.095 192.812L444.816 162.626L326.213 162.626L204.386 194L203.444 192.785L320.553 162.626H199.948L56.5776 193.572L55.7681 192.326L193.365 162.626L85.4143 162.626V161.878L-84.2883 193.582L-85 192.316L929.48 2.78768L929.518 2.75818L929.555 2.77377L933.437 2.0485ZM937.181 2.74792L935.655 3.03294L935.823 3.29205L936.144 3.29119L936.147 3.65614L936.854 3.83806L936.856 3.54545L937.231 3.54646L936.894 3.47373L937.345 2.77867L937.181 2.74792ZM943.12 4.8177L942.189 5.21222L1241.08 82.186L1301.56 82.186L943.12 4.8177ZM939.573 7.0207L939.89 6.62595L1174.49 82.186L1116.89 82.186L939.573 7.0207ZM939.107 10.6743L939.122 8.74066L1057.6 82.186L996.498 82.186L939.107 10.6743ZM936.602 10.7228L936.796 10.9641L936.501 47.3103L936.208 11.2133L936.602 10.7228ZM933.882 8.99239L933.898 10.9234L876.502 82.4402L815.395 82.4402L933.882 8.99239ZM933.434 6.77576L933.724 7.13636L933.659 7.17667L756.111 82.4403L698.51 82.4403L933.434 6.77576ZM931.557 5.2743L930.675 4.90039L571.44 82.4403L631.918 82.4403L931.557 5.2743ZM933.923 14.061L934.477 82.4402L879.045 82.4402L933.923 14.061ZM934.488 83.7709L877.977 83.7709L850.305 118.251L934.768 118.251L934.488 83.7709ZM934.778 119.582L849.237 119.582L815.76 161.295L935.117 161.295L934.778 119.582ZM938.527 82.186L939.081 13.8118L993.955 82.186L938.527 82.186ZM938.237 117.997L938.516 83.5166L995.023 83.5166L1022.69 117.997L938.237 117.997ZM937.888 161.041L938.226 119.327L1023.76 119.327L1057.24 161.041L937.888 161.041ZM1308.14 82.186L958.996 6.82353L1362.39 82.1861L1308.14 82.186ZM1368.98 83.4187V83.5167L1314.31 83.5167L1474.05 117.997L1554.07 117.997L1368.98 83.4187ZM1307.72 83.5167L1246.25 83.5167L1380.14 117.997L1467.47 117.997L1307.72 83.5167ZM1240.59 83.5167L1374.48 117.997L1290.41 117.997L1183.35 83.5167L1240.59 83.5167ZM1178.62 83.5167L1285.68 117.997L1201.37 117.997L1120.03 83.5167L1178.62 83.5167ZM1116.13 83.5167L1197.47 117.997L1118.53 117.997L1062.9 83.5167L1116.13 83.5167ZM1060.76 82.186L1112.99 82.186L947.77 12.147L1060.76 82.186ZM1059.75 83.5167L1115.37 117.997L1025.24 117.997L997.566 83.5166L1059.75 83.5167ZM1179.22 82.186L1235.42 82.186L955.008 9.97079L1179.22 82.186ZM1026.31 119.327L1117.52 119.327L1184.81 161.041H1059.78L1026.31 119.327ZM1120.67 119.327L1200.61 119.327L1299.01 161.041L1187.97 161.041L1120.67 119.327ZM1204.51 119.327L1289.81 119.327L1419.32 161.041L1302.91 161.041L1204.51 119.327ZM1294.54 119.327L1379.64 119.328L1541.62 161.041L1424.05 161.041L1294.54 119.327ZM1473.63 119.328L1385.3 119.328L1547.28 161.041H1666.89L1473.63 119.328ZM1480.22 119.328L1561.19 119.328L1784.47 161.041L1673.47 161.041L1480.22 119.328ZM564.857 82.4403L914.004 7.0778L510.615 82.4403L564.857 82.4403ZM504.017 83.673V83.771L558.692 83.771L398.949 118.251L318.932 118.251L504.017 83.673ZM565.275 83.771L626.751 83.771L492.863 118.251L405.532 118.251L565.275 83.771ZM632.41 83.771L498.522 118.251L582.592 118.251L689.646 83.771L632.41 83.771ZM694.379 83.771L587.324 118.251L671.633 118.251L752.972 83.7709L694.379 83.771ZM756.869 83.7709L675.53 118.251L754.473 118.251L810.096 83.7709L756.869 83.7709ZM812.243 82.4402L760.008 82.4403L925.23 12.4013L812.243 82.4402ZM813.249 83.7709L757.625 118.251L847.762 118.251L875.434 83.7709L813.249 83.7709ZM693.777 82.4403L637.577 82.4403L917.992 10.2251L693.777 82.4403ZM846.694 119.582L755.479 119.582L688.186 161.295H813.217L846.694 119.582ZM752.326 119.582L672.391 119.582L573.988 161.295H685.034L752.326 119.582ZM668.494 119.582L583.193 119.582L453.68 161.295L570.091 161.295L668.494 119.582ZM578.46 119.582L493.355 119.582L331.38 161.295L448.947 161.295L578.46 119.582ZM399.367 119.582L487.696 119.582L325.72 161.295H206.113L399.367 119.582ZM392.784 119.582L311.809 119.582L88.5313 161.295L199.53 161.295L392.784 119.582Z" fill="url(#paint0_linear_210_81)"/>
</g>
<defs>
<linearGradient id="paint0_linear_210_81" x1="634.887" y1="207.764" x2="637.814" y2="38.2394" gradientUnits="userSpaceOnUse">
<stop stop-color="white" stop-opacity="0"/>
<stop offset="0.531666" stop-color="white"/>
<stop offset="1" stop-color="white" stop-opacity="0"/>
</linearGradient>
</defs>
</svg>
