<?xml version="1.0" standalone="no"?>
<!DOCTYPE svg PUBLIC "-//W3C//DTD SVG 20010904//EN"
 "http://www.w3.org/TR/2001/REC-SVG-20010904/DTD/svg10.dtd">
<svg version="1.0" xmlns="http://www.w3.org/2000/svg"
 width="512.000000pt" height="512.000000pt" viewBox="0 0 512.000000 512.000000"
 preserveAspectRatio="xMidYMid meet">

<g transform="translate(0.000000,512.000000) scale(0.100000,-0.100000)"
fill="#000000" stroke="none">
<path d="M413 4015 c-175 -47 -325 -189 -385 -363 l-23 -67 0 -1025 0 -1025
23 -67 c61 -176 211 -317 388 -362 55 -14 201 -16 1281 -16 1350 0 1271 -4
1404 66 132 70 249 223 278 366 8 37 11 357 9 1068 l-3 1015 -30 72 c-73 175
-204 292 -380 338 -52 13 -213 15 -1285 14 -1020 0 -1234 -3 -1277 -14z m2541
-226 c73 -27 148 -96 183 -167 l28 -57 0 -1005 0 -1005 -22 -47 c-30 -66 -96
-133 -162 -165 l-56 -28 -1230 0 -1230 0 -48 25 c-77 39 -123 85 -159 158
l-33 67 0 995 0 995 23 49 c31 69 65 110 119 147 87 60 23 58 1330 58 1189 1
1203 1 1257 -20z"/>
<path d="M4965 3750 c-11 -5 -296 -172 -634 -372 -385 -228 -622 -374 -635
-391 -20 -27 -21 -41 -24 -382 -2 -285 0 -360 11 -387 11 -27 149 -139 648
-526 614 -476 635 -492 677 -492 37 0 50 6 78 34 l34 34 0 1201 c0 1320 4
1243 -60 1276 -32 17 -64 18 -95 5z m-65 -1256 c0 -561 -4 -954 -9 -952 -5 2
-232 176 -505 388 l-496 385 2 274 3 274 495 293 c272 161 498 293 503 293 4
1 7 -429 7 -955z"/>
</g>
</svg>
