<svg width="23" height="23" viewBox="0 0 23 23" fill="none" xmlns="http://www.w3.org/2000/svg">
<path fill-rule="evenodd" clip-rule="evenodd" d="M20.3345 1.07107C20.725 0.680544 21.3581 0.680528 21.7487 1.07107C22.1392 1.46161 22.1392 2.09476 21.7487 2.48528L21.0416 3.19239C21.0301 3.2039 21.0183 3.21505 21.0064 3.22591C21.0001 3.23164 20.9937 3.23732 20.9873 3.24288C22.9159 5.8522 22.6983 9.54956 20.3345 11.9134L17.6158 14.6321C17.0912 15.1566 16.9269 15.9268 17.0061 16.6644C17.2007 18.4771 16.6032 20.3586 15.2138 21.7481C14.5271 22.4347 13.4139 22.4348 12.7272 21.7481L1.07163 10.0925C0.384984 9.40586 0.385 8.29261 1.07163 7.60598C2.4611 6.21651 4.34267 5.61908 6.15531 5.81365C6.89293 5.89285 7.6631 5.72853 8.18766 5.20397L10.9064 2.48527C13.2702 0.121438 16.9675 -0.0961451 19.5769 1.83247C19.5929 1.81391 19.6097 1.7958 19.6274 1.77817L20.3345 1.07107ZM5.80343 20.4812C4.9482 19.6259 4.84212 18.3052 5.48522 17.3345L8.95002 20.7993C7.97934 21.4424 6.65866 21.3364 5.80343 20.4812Z" fill="black"/>
</svg>
