<svg width="24" height="18" viewBox="0 0 24 18" fill="none" xmlns="http://www.w3.org/2000/svg">
<path fill-rule="evenodd" clip-rule="evenodd" d="M5 0C2.23858 0 0 2.23858 0 5V13C0 15.7614 2.23858 18 5 18H19C21.7614 18 24 15.7614 24 13V5C24 2.23858 21.7614 0 19 0H5ZM2 5C2 3.34315 3.34315 2 5 2H19C20.6569 2 22 3.34315 22 5V13C22 14.6569 20.6569 16 19 16H5C3.34315 16 2 14.6569 2 13V5ZM16.7071 6.70711C17.0976 6.31658 17.0976 5.68342 16.7071 5.29289C16.3166 4.90237 15.6834 4.90237 15.2929 5.29289L11 9.58579L9.70711 8.29289C9.31658 7.90237 8.68342 7.90237 8.29289 8.29289C7.90237 8.68342 7.90237 9.31658 8.29289 9.70711L10.2929 11.7071C10.6834 12.0976 11.3166 12.0976 11.7071 11.7071L16.7071 6.70711Z" fill="black"/>
</svg>
