<svg width="24" height="23" viewBox="0 0 24 23" fill="none" xmlns="http://www.w3.org/2000/svg">
<path fill-rule="evenodd" clip-rule="evenodd" d="M8 0C8.55229 0 9 0.447715 9 1V4C9 4.55229 8.55229 5 8 5C7.44772 5 7 4.55229 7 4V1C7 0.447715 7.44772 0 8 0ZM4 4C2.89543 4 2 4.89543 2 6V7H22V6C22 4.89543 21.1046 4 20 4H18V2H20C22.2091 2 24 3.79086 24 6V19C24 21.2091 22.2091 23 20 23H4C1.79086 23 0 21.2091 0 19V6C0 3.79086 1.79086 2 4 2H6V4H4ZM2 19V9H22V19C22 20.1046 21.1046 21 20 21H4C2.89543 21 2 20.1046 2 19ZM14 4H10V2H14V4ZM16.7071 12.7071C17.0976 12.3166 17.0976 11.6834 16.7071 11.2929C16.3166 10.9024 15.6834 10.9024 15.2929 11.2929L11 15.5858L9.70711 14.2929C9.31658 13.9024 8.68342 13.9024 8.29289 14.2929C7.90237 14.6834 7.90237 15.3166 8.29289 15.7071L10.2929 17.7071C10.6834 18.0976 11.3166 18.0976 11.7071 17.7071L16.7071 12.7071ZM17 1C17 0.447715 16.5523 0 16 0C15.4477 0 15 0.447715 15 1V4C15 4.55229 15.4477 5 16 5C16.5523 5 17 4.55229 17 4V1Z" fill="black"/>
</svg>
