<svg width="24" height="15" viewBox="0 0 24 15" fill="none" xmlns="http://www.w3.org/2000/svg">
<path fill-rule="evenodd" clip-rule="evenodd" d="M4 2H13.1429C14.2474 2 15.1429 2.89543 15.1429 4V11C15.1429 12.1046 14.2474 13 13.1429 13H4C2.89543 13 2 12.1046 2 11V4C2 2.89543 2.89543 2 4 2ZM0 4C0 1.79086 1.79086 0 4 0H13.1429C15.352 0 17.1429 1.79086 17.1429 4V8.70862C17.1947 8.72853 17.2457 8.75305 17.2951 8.78231L20.9175 10.9266C20.9252 10.9311 20.9329 10.9358 20.9405 10.9406C21.0683 11.021 21.2213 11.0893 21.3626 11.1223C21.5068 11.156 21.577 11.1396 21.5939 11.1334C21.5992 11.1314 21.6046 11.129 21.6144 11.1199C21.6252 11.1098 21.6545 11.0788 21.6901 11.0056C21.7662 10.8494 21.857 10.529 21.857 9.93877V9.9229V9.90706V9.89125V9.87547V9.85972V9.84401V9.82832V9.81266V9.79703V9.78143V9.76587V9.75033V9.73482V9.71934V9.70389V9.68847V9.67308V9.65772V9.64238V9.62708V9.61181V9.59656V9.58135V9.56616V9.55101V9.53588V9.52078V9.50571V9.49067V9.47566V9.46067V9.44572V9.43079V9.4159V9.40103V9.38619V9.37138V9.35659V9.34184V9.32711V9.31241V9.29774V9.2831V9.26849V9.2539V9.23934V9.22481V9.21031V9.19584V9.18139V9.16697V9.15258V9.13822V9.12388V9.10958V9.0953V9.08104V9.06682V9.05262V9.03845V9.02431V9.01019V8.9961V8.98204V8.968V8.954V8.94001V8.92606V8.91213V8.89823V8.88436V8.87051V8.85669V8.8429V8.82913V8.81539V8.80168V8.78799V8.77433V8.76069V8.74708V8.7335V8.71994V8.70641V8.69291V8.67943V8.66598V8.65255V8.63915V8.62578V8.61243V8.5991V8.5858V8.57253V8.55929V8.54606V8.53287V8.5197V8.50655V8.49343V8.48034V8.46727V8.45422V8.4412V8.42821V8.41524V8.4023V8.38938V8.37648V8.36361V8.35077V8.33795V8.32515V8.31238V8.29963V8.28691V8.27421V8.26154V8.24889V8.23626V8.22366V8.21109V8.19853V8.18601V8.1735V8.16102V8.14856V8.13613V8.12372V8.11134V8.09898V8.08664V8.07432V8.06203V8.04977V8.03752V8.0253V8.01311V8.00093V7.98878V7.97666V7.96455V7.95247V7.94041V7.92838V7.91637V7.90438V7.89241V7.88047V7.86855V7.85665V7.84477V7.83292V7.82109V7.80928V7.7975V7.78573V7.77399V7.76228V7.75058V7.7389V7.72725V7.71562V7.70402V7.69243V7.68087V7.66933V7.65781V7.64631V7.63483V7.62338V7.61194V7.60053V7.58914V7.57777V7.56643V7.5551V7.54379V7.53251V7.52125V7.51001V7.49879V7.48759V7.47641V7.46526V7.45412V7.44301V7.43191V7.42084V7.40979V7.39875V7.38774V7.37675V7.36578V7.35483V7.3439V7.33299V7.3221V7.31124V7.30039V7.28956V7.27875V7.26796V7.2572V7.24645V7.23572V7.22501V7.21432V7.20365V7.19301V7.18238V7.17177V7.16118V7.15061V7.14005V7.12952V7.11901V7.10852V7.09804V7.08759V7.07715V7.06674V7.05634V7.04596V7.0356V7.02526V7.01494V7.00463V6.99435V6.98408V6.97384V6.96361V6.9534V6.94321V6.93303V6.92288V6.91274V6.90262V6.89252V6.88244V6.87238V6.86233V6.85231V6.8423V6.8323V6.82233V6.81238V6.80244V6.79252V6.78261V6.77273V6.76286V6.75301V6.74318V6.73336V6.72357V6.71378V6.70402V6.69428V6.68455V6.67483V6.66514V6.65546V6.6458V6.63616V6.62653V6.61692V6.60733V6.59775V6.58819V6.57865V6.56912V6.55961V6.55012V6.54064V6.53118V6.52173V6.5123V6.50289V6.49349V6.48411V6.47475V6.4654V6.45607V6.44675V6.43745V6.42817V6.4189V6.40964V6.40041V6.39118V6.38198V6.37279V6.36361V6.35445V6.34531V6.33618V6.32706V6.31796V6.30888V6.29981V6.29076V6.28172V6.27269V6.26368V6.25469V6.24571V6.23674V6.22779V6.21886V6.20994V6.20103V6.19214V6.18326V6.1744V6.16555V6.15671V6.14789V6.13909V6.13029V6.12152V6.11275V6.104V6.09526V6.08654V6.07783V6.06914V6.06046V6.05179V6.04314V6.0345V6.02587V6.01726V6.00866V6.00007V5.9915V5.98294V5.97439V5.96586V5.95733V5.94883V5.94033V5.93185V5.92338V5.91493V5.90648V5.89805V5.88964V5.88123V5.87284V5.86446V5.85609V5.84774V5.83939V5.83106V5.82274V5.81444V5.80615V5.79786V5.78959V5.78134V5.77309V5.76486V5.75664V5.74843V5.74023V5.73204V5.72387V5.71571V5.70755V5.69941V5.69129V5.68317V5.67506V5.66697V5.65889V5.65082V5.64275V5.63471V5.62667V5.61864V5.61062V5.60262V5.59462V5.58664V5.57867V5.5707V5.56275V5.55481V5.54688V5.53896V5.53105V5.52315V5.51526V5.50739V5.49952V5.49166V5.48381V5.47597V5.46815V5.46033V5.45252V5.44472V5.43694V5.42916V5.42139V5.41363V5.40588V5.39814V5.39041V5.38269V5.37498V5.36728V5.35959V5.3519V5.34423V5.33657V5.32891V5.32126V5.31363V5.306V5.29838V5.29077V5.28317V5.27557V5.26799V5.26042V5.25285V5.24529V5.23774V5.2302V5.22267V5.21514V5.20763V5.20012V5.19262V5.18513V5.17764V5.17017V5.1627V5.15524V5.14779V5.14035V5.13291V5.12549V5.11807V5.11065V5.10325V5.09585V5.08846V5.08108V5.0737V5.06634V5.05898V5.05162V5.04428V5.03694V5.02961V5.02228V5.01497V5.00766V5.00035V4.99306V4.98577V4.97848V4.97121V4.96394V4.95667V4.94942V4.94217V4.93492V4.92769V4.92046V4.91323V4.90601V4.8988V4.8916V4.8844V4.8772V4.87001V4.86283V4.85566V4.84849V4.84132V4.83416V4.82701V4.81986V4.81272V4.80558V4.79845V4.79133V4.78421V4.77709V4.76999V4.76288V4.75578V4.74869V4.7416V4.73452V4.72744V4.72036V4.71329V4.70623V4.69917V4.69212V4.68507V4.67802V4.67098V4.66395V4.65691V4.64989V4.64286C21.857 4.4972 21.8211 4.35135 21.7629 4.23436C21.7032 4.11444 21.6416 4.06569 21.6207 4.05358C21.6202 4.05326 21.6203 4.05283 21.6203 4.05246C21.6206 4.05133 21.6207 4.05075 21.6022 4.05574C21.5559 4.06821 21.3983 4.13117 21.1575 4.40378C20.5049 5.14261 20.3309 5.34507 20.2232 5.47215L20.1818 5.5211C20.0867 5.63352 20.0018 5.73397 19.6521 6.12986C19.2865 6.54378 18.6545 6.58294 18.2406 6.21731C17.8267 5.85168 17.7875 5.21973 18.1532 4.8058C18.4905 4.42388 18.5684 4.33168 18.6567 4.22717L18.6976 4.17882C18.8195 4.03506 19.0051 3.81955 19.6586 3.07972C20.0709 2.613 20.5459 2.26917 21.0813 2.12475C21.6384 1.97449 22.1772 2.06434 22.624 2.32339C23.4579 2.80695 23.857 3.7854 23.857 4.64286V4.64989V4.65691V4.66395V4.67098V4.67802V4.68507V4.69212V4.69917V4.70623V4.71329V4.72036V4.72744V4.73452V4.7416V4.74869V4.75578V4.76288V4.76999V4.77709V4.78421V4.79133V4.79845V4.80558V4.81272V4.81986V4.82701V4.83416V4.84132V4.84849V4.85566V4.86283V4.87001V4.8772V4.8844V4.8916V4.8988V4.90601V4.91323V4.92046V4.92769V4.93492V4.94217V4.94942V4.95667V4.96394V4.97121V4.97848V4.98577V4.99306V5.00035V5.00766V5.01497V5.02228V5.02961V5.03694V5.04428V5.05162V5.05898V5.06634V5.0737V5.08108V5.08846V5.09585V5.10325V5.11065V5.11807V5.12549V5.13291V5.14035V5.14779V5.15524V5.1627V5.17017V5.17764V5.18513V5.19262V5.20012V5.20763V5.21514V5.22267V5.2302V5.23774V5.24529V5.25285V5.26042V5.26799V5.27557V5.28317V5.29077V5.29838V5.306V5.31363V5.32126V5.32891V5.33657V5.34423V5.3519V5.35959V5.36728V5.37498V5.38269V5.39041V5.39814V5.40588V5.41363V5.42139V5.42916V5.43694V5.44472V5.45252V5.46033V5.46815V5.47597V5.48381V5.49166V5.49952V5.50739V5.51526V5.52315V5.53105V5.53896V5.54688V5.55481V5.56275V5.5707V5.57867V5.58664V5.59462V5.60262V5.61062V5.61864V5.62667V5.63471V5.64275V5.65082V5.65889V5.66697V5.67506V5.68317V5.69129V5.69941V5.70755V5.71571V5.72387V5.73204V5.74023V5.74843V5.75664V5.76486V5.77309V5.78134V5.78959V5.79786V5.80615V5.81444V5.82274V5.83106V5.83939V5.84774V5.85609V5.86446V5.87284V5.88123V5.88964V5.89805V5.90648V5.91493V5.92338V5.93185V5.94033V5.94883V5.95733V5.96586V5.97439V5.98294V5.9915V6.00007V6.00866V6.01726V6.02587V6.0345V6.04314V6.05179V6.06046V6.06914V6.07783V6.08654V6.09526V6.104V6.11275V6.12152V6.13029V6.13909V6.14789V6.15671V6.16555V6.1744V6.18326V6.19214V6.20103V6.20994V6.21886V6.22779V6.23674V6.24571V6.25469V6.26368V6.27269V6.28172V6.29076V6.29981V6.30888V6.31796V6.32706V6.33618V6.34531V6.35445V6.36361V6.37279V6.38198V6.39118V6.40041V6.40964V6.4189V6.42817V6.43745V6.44675V6.45607V6.4654V6.47475V6.48411V6.49349V6.50289V6.5123V6.52173V6.53118V6.54064V6.55012V6.55961V6.56912V6.57865V6.58819V6.59775V6.60733V6.61692V6.62653V6.63616V6.6458V6.65546V6.66514V6.67483V6.68455V6.69428V6.70402V6.71378V6.72357V6.73336V6.74318V6.75301V6.76286V6.77273V6.78261V6.79252V6.80244V6.81238V6.82233V6.8323V6.8423V6.85231V6.86233V6.87238V6.88244V6.89252V6.90262V6.91274V6.92288V6.93303V6.94321V6.9534V6.96361V6.97384V6.98408V6.99435V7.00463V7.01494V7.02526V7.0356V7.04596V7.05634V7.06674V7.07715V7.08759V7.09804V7.10852V7.11901V7.12952V7.14005V7.15061V7.16118V7.17177V7.18238V7.19301V7.20365V7.21432V7.22501V7.23572V7.24645V7.2572V7.26796V7.27875V7.28956V7.30039V7.31124V7.3221V7.33299V7.3439V7.35483V7.36578V7.37675V7.38774V7.39875V7.40979V7.42084V7.43191V7.44301V7.45412V7.46526V7.47641V7.48759V7.49879V7.51001V7.52125V7.53251V7.54379V7.5551V7.56643V7.57777V7.58914V7.60053V7.61194V7.62338V7.63483V7.64631V7.65781V7.66933V7.68087V7.69243V7.70402V7.71562V7.72725V7.7389V7.75058V7.76228V7.77399V7.78573V7.7975V7.80928V7.82109V7.83292V7.84477V7.85665V7.86855V7.88047V7.89241V7.90438V7.91637V7.92838V7.94041V7.95247V7.96455V7.97666V7.98878V8.00093V8.01311V8.0253V8.03752V8.04977V8.06203V8.07432V8.08664V8.09898V8.11134V8.12372V8.13613V8.14856V8.16102V8.1735V8.18601V8.19853V8.21109V8.22366V8.23626V8.24889V8.26154V8.27421V8.28691V8.29963V8.31238V8.32515V8.33795V8.35077V8.36361V8.37648V8.38938V8.4023V8.41524V8.42821V8.4412V8.45422V8.46727V8.48034V8.49343V8.50655V8.5197V8.53287V8.54606V8.55929V8.57253V8.5858V8.5991V8.61243V8.62578V8.63915V8.65255V8.66598V8.67943V8.69291V8.70641V8.71994V8.7335V8.74708V8.76069V8.77433V8.78799V8.80168V8.81539V8.82913V8.8429V8.85669V8.87051V8.88436V8.89823V8.91213V8.92606V8.94001V8.954V8.968V8.98204V8.9961V9.01019V9.02431V9.03845V9.05262V9.06682V9.08104V9.0953V9.10958V9.12388V9.13822V9.15258V9.16697V9.18139V9.19584V9.21031V9.22481V9.23934V9.2539V9.26849V9.2831V9.29774V9.31241V9.32711V9.34184V9.35659V9.37138V9.38619V9.40103V9.4159V9.43079V9.44572V9.46067V9.47566V9.49067V9.50571V9.52078V9.53588V9.55101V9.56616V9.58135V9.59656V9.61181V9.62708V9.64238V9.65772V9.67308V9.68847V9.70389V9.71934V9.73482V9.75033V9.76587V9.78143V9.79703V9.81266V9.82832V9.84401V9.85972V9.87547V9.89125V9.90706V9.9229V9.93877C23.857 11.4323 23.3981 12.6013 22.2835 13.0107C21.3388 13.3577 20.3858 12.9512 19.8881 12.6414L17.1428 11.0163C17.134 13.2179 15.3466 15 13.1429 15H4C1.79086 15 0 13.2091 0 11V4Z" fill="black"/>
</svg>
