<svg width="21" height="21" viewBox="0 0 21 21" fill="none" xmlns="http://www.w3.org/2000/svg">
<path d="M8.5 4H3C1.89543 4 1 4.89543 1 6V18C1 19.1046 1.89543 20 3 20H15C16.1046 20 17 19.1046 17 18V11" stroke="white" stroke-width="2" stroke-linecap="round"/>
<path d="M15.5 8.58521L12.1286 11.9567C11.9187 12.1665 11.6265 12.2723 11.3309 12.2454L9.52311 12.0811C9.04236 12.0374 8.66146 11.6565 8.61776 11.1757L8.45341 9.36794C8.42654 9.07238 8.53234 8.78016 8.7422 8.5703L15.6054 1.70711C15.9959 1.31658 16.6291 1.31658 17.0196 1.70711L18.9917 3.67925C19.3823 4.06977 19.3823 4.70294 18.9917 5.09346L18.2071 5.8781C17.8166 6.26863 17.1834 6.26863 16.7929 5.8781L16 5.08521" stroke="white" stroke-width="2" stroke-linecap="round"/>
</svg>
