<svg width="24" height="20" viewBox="0 0 24 20" fill="none" xmlns="http://www.w3.org/2000/svg">
<path fill-rule="evenodd" clip-rule="evenodd" d="M11.8 0C8.15556 0 5.16161 2.78509 4.83043 6.34301C2.02652 7.25639 0 9.89059 0 13C0 16.866 3.13401 20 7 20H16.6C20.466 20 23.6 16.866 23.6 13C23.6 9.89059 21.5735 7.25639 18.7696 6.34301C18.4384 2.78509 15.4444 0 11.8 0ZM6.8 7C6.8 4.23858 9.03858 2 11.8 2C14.5614 2 16.8 4.23858 16.8 7C16.8 7.03351 16.7997 7.06691 16.799 7.1002C16.7896 7.58316 17.1267 8.00384 17.6001 8.09984C19.8824 8.56264 21.6 10.5819 21.6 13C21.6 15.7614 19.3614 18 16.6 18H7C4.23858 18 2 15.7614 2 13C2 10.5819 3.7176 8.56264 5.99991 8.09984C6.47332 8.00384 6.81044 7.58316 6.80098 7.1002C6.80033 7.06689 6.8 7.03349 6.8 7ZM14.8 11.2H12.8V8.2H10.8V11.2H8.8L11.8 14.8L14.8 11.2Z" fill="#000000"/>
</svg>
