<svg width="29" height="20" viewBox="0 0 29 20" fill="none" xmlns="http://www.w3.org/2000/svg">
<path d="M6.07229 18.0047C7.25917 18.5781 8.59182 18.8997 10 18.8997C14.9706 18.8997 19 14.8927 19 9.94984C19 5.00698 14.9706 1 10 1C5.02944 1 1 5.00698 1 9.94984C1 11.7683 1.54537 13.4601 2.48232 14.8722C2.92267 15.5359 1.19952 18.3754 1.7969 18.8997M6.07229 18.0047C5.33536 17.6487 2.40463 19.4331 1.7969 18.8997M6.07229 18.0047L1.7969 18.8997" stroke="black" stroke-width="2"/>
<path d="M29 9.95541C29 5.56176 25.275 2 20.68 2C19.1646 2 17.7438 2.38741 16.52 3.06429L16 3.5C18.08 5.33333 20.992 10.5 16 16.5L16.52 16.8465C17.7438 17.5234 19.1646 17.9108 20.68 17.9108C21.9818 17.9108 23.2137 17.6249 24.311 17.1153L26.0115 17.4576C26.9457 17.79 27.9463 18.1783 28.2633 17.9108C28.8156 17.4448 27.2226 14.9208 27.6297 14.3309C28.4958 13.0756 29 11.5718 29 9.95541Z" fill="black"/>
<path d="M12.9585 9.17485C13.4918 9.57485 13.4918 10.3749 12.9585 10.7749L9.93959 13.039C9.28035 13.5334 8.33959 13.0631 8.33959 12.239L8.33959 7.71068C8.33959 6.88664 9.28035 6.41626 9.93959 6.91069L12.9585 9.17485Z" fill="black"/>
</svg>
