<svg width="30" height="30" viewBox="0 0 50 50" fill="none" xmlns="http://www.w3.org/2000/svg">
<circle cx="25" cy="25" r="25" fill="#E5E5E5"/>
<path d="M20.896 33H17.704V21.192H20.896V33ZM17.32 17.328C17.32 16.784 17.512 16.32 17.896 15.936C18.28 15.536 18.744 15.336 19.288 15.336C19.832 15.336 20.296 15.528 20.68 15.912C21.064 16.296 21.256 16.768 21.256 17.328C21.256 17.856 21.064 18.312 20.68 18.696C20.296 19.08 19.832 19.272 19.288 19.272C18.744 19.272 18.28 19.08 17.896 18.696C17.512 18.312 17.32 17.856 17.32 17.328ZM27.5054 26.208V33H24.3134V21.192H27.4094V22.656C27.7454 22.08 28.2254 21.64 28.8494 21.336C29.4734 21.032 30.1294 20.88 30.8174 20.88C32.2094 20.88 33.2654 21.32 33.9854 22.2C34.7214 23.064 35.0894 24.184 35.0894 25.56V33H31.8974V26.112C31.8974 25.408 31.7134 24.84 31.3454 24.408C30.9934 23.976 30.4494 23.76 29.7134 23.76C29.0414 23.76 28.5054 23.992 28.1054 24.456C27.7054 24.92 27.5054 25.504 27.5054 26.208Z" fill="black"/>
</svg>
