<svg width="52" height="62" viewBox="0 0 52 62" fill="none" xmlns="http://www.w3.org/2000/svg">
<path d="M22 44H20H16C9.37258 44 4 38.6274 4 32V16C4 9.37258 9.37258 4 16 4H36C42.6274 4 48 9.37258 48 16V35.5147C48 40.201 44.201 44 39.5147 44V44C37.2643 44 35.106 44.894 33.5147 46.4853L21 59" stroke="white" stroke-width="8"/>
<path d="M31.8827 23.3272C32.3932 23.7275 32.3932 24.5005 31.8827 24.9009L22.4289 32.3155C21.7726 32.8302 20.8117 32.3627 20.8117 31.5286L20.8117 16.6994C20.8117 15.8654 21.7726 15.3978 22.4289 15.9125L31.8827 23.3272Z" fill="black"/>
</svg>
