<svg width="200" height="200" viewBox="0 0 200 200" fill="none" xmlns="http://www.w3.org/2000/svg">
<path d="M0 63.8515C0 28.5873 28.5873 0 63.8515 0H135.684C170.949 0 199.536 28.5873 199.536 63.8515V135.684C199.536 170.949 170.949 199.536 135.684 199.536H63.8515C28.5873 199.536 0 170.949 0 135.684V63.8515Z" fill="#EE7823"/>
<path fill-rule="evenodd" clip-rule="evenodd" d="M135.352 94.5256H39.7847L131.958 116.074C126.02 127.849 113.763 135.932 99.6052 135.932C84.9288 135.932 72.2943 127.245 66.6255 114.765L39 109.809C43.7222 138.835 69.0585 161 99.6052 161C133.513 161 161 133.689 161 100C161 98.2823 160.929 96.5812 160.788 94.8994L161 94.5256H160.756H135.352ZM156.671 77.455L128.599 78.5209C122.005 69.7481 111.473 64.0685 99.6052 64.0685C86.7464 64.0685 75.4551 70.7365 69.0429 80.7823L40.9745 81.8481C48.7517 57.0233 72.0601 39 99.6052 39C125.498 39 147.646 54.9251 156.671 77.455Z" fill="white"/>
</svg>
