<svg width="22" height="24" viewBox="0 0 22 24" fill="none" xmlns="http://www.w3.org/2000/svg">
<path fill-rule="evenodd" clip-rule="evenodd" d="M2 11.6944C2 6.59823 6.0475 2.5 11 2.5C15.9525 2.5 20 6.59823 20 11.6944C20 16.7905 15.9525 20.8888 11 20.8888C9.89246 20.8888 8.83364 20.6849 7.85599 20.3124C7.53381 20.1897 7.17966 20.1737 6.90185 20.18C6.60062 20.1869 6.27032 20.2246 5.93878 20.2774C5.27434 20.3831 4.52051 20.563 3.82571 20.7497C3.53977 20.8266 3.26024 20.9055 2.99654 20.9825C3.05551 20.7723 3.11499 20.5529 3.17245 20.33C3.33536 19.698 3.4895 19.0087 3.56556 18.4032C3.60345 18.1015 3.62581 17.7918 3.61216 17.5053C3.59983 17.2465 3.55409 16.8753 3.35389 16.5468C2.49636 15.1399 2 13.4783 2 11.6944ZM0.5 23.8991L1.82364 23.4462L1.82367 23.4462L1.82372 23.4462L1.82407 23.446L1.82617 23.4453L1.83557 23.4421L1.87436 23.429C1.90886 23.4174 1.96023 23.4002 2.02639 23.3783C2.15874 23.3346 2.34995 23.2722 2.58318 23.1985C3.05063 23.0508 3.68227 22.8592 4.34475 22.6812C5.01168 22.502 5.68873 22.3423 6.25298 22.2525C6.53579 22.2075 6.7693 22.1836 6.94741 22.1795C7.07176 22.1767 7.13489 22.1847 7.15428 22.1872C7.15837 22.1877 7.16052 22.1879 7.16088 22.1878C8.3572 22.6413 9.65124 22.8888 11 22.8888C17.0932 22.8888 22 17.8586 22 11.6944C22 5.53013 17.0932 0.5 11 0.5C4.90681 0.5 0 5.53013 0 11.6944C0 13.8277 0.587338 15.8253 1.60816 17.525C1.61035 17.5418 1.61281 17.5666 1.61443 17.6005C1.6205 17.728 1.61151 17.9123 1.58116 18.1539C1.52074 18.6349 1.39087 19.229 1.23575 19.8308C1.08217 20.4267 0.911103 21.0026 0.77674 21.4407C0.730466 21.5915 0.68962 21.7226 0.654735 21.8346L0.610112 21.978C0.5896 22.0442 0.571023 22.1047 0.557252 22.1519C0.550639 22.1746 0.542549 22.203 0.535375 22.2311C0.531947 22.2446 0.526279 22.2675 0.520816 22.2946L0.52066 22.2953C0.518665 22.3047 0.5 22.3925 0.5 22.5V23.8991ZM8 8.5C7.44772 8.5 7 8.94771 7 9.5C7 10.0523 7.44772 10.5 8 10.5H15C15.5523 10.5 16 10.0523 16 9.5C16 8.94771 15.5523 8.5 15 8.5H8ZM8 12.5C7.44772 12.5 7 12.9477 7 13.5C7 14.0523 7.44772 14.5 8 14.5H12.1176C12.6699 14.5 13.1176 14.0523 13.1176 13.5C13.1176 12.9477 12.6699 12.5 12.1176 12.5H8Z" fill="#000000"/>
</svg>
