<svg width="24" height="19" viewBox="0 0 24 19" fill="none" xmlns="http://www.w3.org/2000/svg">
<path fill-rule="evenodd" clip-rule="evenodd" d="M2.5 0C1.11929 0 0 1.11929 0 2.5C0 3.88071 1.11929 5 2.5 5C3.88071 5 5 3.88071 5 2.5C5 1.11929 3.88071 0 2.5 0ZM2 2.5C2 2.22386 2.22386 2 2.5 2C2.77614 2 3 2.22386 3 2.5C3 2.77614 2.77614 3 2.5 3C2.22386 3 2 2.77614 2 2.5ZM9 1C8.44771 1 8 1.44772 8 2C8 2.55228 8.44771 3 9 3H23C23.5523 3 24 2.55228 24 2C24 1.44772 23.5523 1 23 1H9ZM9 8.15909C8.44771 8.15909 8 8.60681 8 9.15909C8 9.71138 8.44771 10.1591 9 10.1591H23C23.5523 10.1591 24 9.71138 24 9.15909C24 8.60681 23.5523 8.15909 23 8.15909H9ZM9 16C8.44771 16 8 16.4477 8 17C8 17.5523 8.44771 18 9 18H23C23.5523 18 24 17.5523 24 17C24 16.4477 23.5523 16 23 16H9ZM0 9.5C0 8.11929 1.11929 7 2.5 7C3.88071 7 5 8.11929 5 9.5C5 10.8807 3.88071 12 2.5 12C1.11929 12 0 10.8807 0 9.5ZM2.5 9C2.22386 9 2 9.22386 2 9.5C2 9.77614 2.22386 10 2.5 10C2.77614 10 3 9.77614 3 9.5C3 9.22386 2.77614 9 2.5 9ZM2.5 14C1.11929 14 0 15.1193 0 16.5C0 17.8807 1.11929 19 2.5 19C3.88071 19 5 17.8807 5 16.5C5 15.1193 3.88071 14 2.5 14ZM2 16.5C2 16.2239 2.22386 16 2.5 16C2.77614 16 3 16.2239 3 16.5C3 16.7761 2.77614 17 2.5 17C2.22386 17 2 16.7761 2 16.5Z" fill="black"/>
</svg>
