<svg width="24" height="21" viewBox="0 0 24 21" fill="none" xmlns="http://www.w3.org/2000/svg">
<path fill-rule="evenodd" clip-rule="evenodd" d="M4 2C2.89543 2 2 2.89543 2 4V5H22V4C22 2.89543 21.1046 2 20 2H18H6H4ZM2 17V7H22V17C22 18.1046 21.1046 19 20 19H4C2.89543 19 2 18.1046 2 17ZM0 4C0 1.79086 1.79086 0 4 0H6H18H20C22.2091 0 24 1.79086 24 4V17C24 19.2091 22.2091 21 20 21H4C1.79086 21 0 19.2091 0 17V4ZM6 14.5C5.44772 14.5 5 14.9477 5 15.5C5 16.0523 5.44772 16.5 6 16.5H12.5C13.0523 16.5 13.5 16.0523 13.5 15.5C13.5 14.9477 13.0523 14.5 12.5 14.5H6Z" fill="black"/>
</svg>
