<?xml version="1.0" encoding="iso-8859-1"?>
<!-- Uploaded to: SVG Repo, www.svgrepo.com, Generator: SVG Repo Mixer Tools -->
<!DOCTYPE svg PUBLIC "-//W3C//DTD SVG 1.1//EN" "http://www.w3.org/Graphics/SVG/1.1/DTD/svg11.dtd">
<svg fill="#000000" version="1.1" id="Capa_1" xmlns="http://www.w3.org/2000/svg" xmlns:xlink="http://www.w3.org/1999/xlink" 
	 width="800px" height="800px" viewBox="0 0 34.954 34.953"
	 xml:space="preserve">
<g>
	<path d="M13.941,21.184c-2.725,0-4.562-1.849-4.381-4.241h0.381c0,1.11,0.74,1.67,2.094,1.67c2.879,0,3.666-3.095,5.74-3.095
		c0.721,0,0.911,0.317,0.799,0.82c-0.113,0.504-0.439,0.821-1.162,0.821H16.62l-0.33,1.497h0.691c1.368,0,2.374-0.576,2.855-1.714
		h0.367C19.325,19.335,16.667,21.184,13.941,21.184z M13.068,13.95h0.316l-0.332,1.496h-0.418c-0.719,0-1.057,0.289-1.168,0.792
		c-0.111,0.504,0.098,0.792,0.818,0.792c2.073,0,2.858-3.095,5.739-3.095c1.367,0,2.115,0.59,2.099,1.713h0.367
		c0.182-2.394-1.656-4.24-4.384-4.24c-2.726,0-5.381,1.847-6.26,4.24h0.381C10.707,14.525,11.7,13.95,13.068,13.95z M32.003,1.536
		v8.029c0,0.85-0.688,1.538-1.536,1.538h-2.664l-5.078,22.922c-0.119,0.541-0.601,0.928-1.154,0.928H7.491
		c-0.356,0-0.699-0.164-0.922-0.441c-0.225-0.279-0.311-0.646-0.232-0.996l0.572-2.584H4.833c-0.356,0-0.696-0.164-0.922-0.442
		C3.686,30.21,3.6,29.844,3.68,29.493L7.75,11.105H4.486c-0.85,0-1.537-0.688-1.537-1.538v-8.03C2.95,0.688,3.638,0,4.486,0h25.981
		C31.317-0.002,32.003,0.686,32.003,1.536z M17.962,28.562l3.865-17.459H10.173L6.307,28.562H17.962z M25.378,11.103h-1.127
		l-4.187,18.898c-0.118,0.541-0.602,0.929-1.153,0.929h-9.58l-0.367,1.655h11.656L25.378,11.103z"/>
</g>
</svg>