<svg width="23" height="23" viewBox="0 0 23 23" fill="none" xmlns="http://www.w3.org/2000/svg">
<path fill-rule="evenodd" clip-rule="evenodd" d="M4.00003 4.5C4.00003 2.29086 5.79089 0.5 8.00003 0.5H15C17.2092 0.5 19 2.29086 19 4.5V10.0858L21.2929 7.79289C21.6834 7.40237 22.3166 7.40237 22.7071 7.79289C23.0977 8.18342 23.0977 8.81658 22.7071 9.20711L18.7071 13.2071C18.3166 13.5976 17.6834 13.5976 17.2929 13.2071L13.2929 9.20711C12.9024 8.81658 12.9024 8.18342 13.2929 7.79289C13.6834 7.40237 14.3166 7.40237 14.7071 7.79289L17 10.0858V4.5C17 3.39543 16.1046 2.5 15 2.5H8.00003C6.89546 2.5 6.00003 3.39543 6.00003 4.5V6C6.00003 6.55228 5.55232 7 5.00003 7C4.44775 7 4.00003 6.55228 4.00003 6V4.5ZM1.70714 15.2071L4.00003 12.9142V18.5C4.00003 20.7091 5.79089 22.5 8.00003 22.5H15C17.2092 22.5 19 20.7091 19 18.5V17C19 16.4477 18.5523 16 18 16C17.4477 16 17 16.4477 17 17V18.5C17 19.6046 16.1046 20.5 15 20.5H8.00003C6.89546 20.5 6.00003 19.6046 6.00003 18.5V12.9142L8.29292 15.2071C8.68345 15.5976 9.31661 15.5976 9.70714 15.2071C10.0977 14.8166 10.0977 14.1834 9.70714 13.7929L5.70714 9.79289C5.31661 9.40237 4.68345 9.40237 4.29292 9.79289L0.292924 13.7929C-0.0976006 14.1834 -0.0976006 14.8166 0.292924 15.2071C0.683448 15.5976 1.31661 15.5976 1.70714 15.2071Z" fill="#000000"/>
</svg>
