<?xml version="1.0" encoding="UTF-8"?>
<svg width="700pt" height="700pt" version="1.1" viewBox="0 0 700 700" xmlns="http://www.w3.org/2000/svg">
 <path d="m280 140h262.5c18.758 0 36.09-10.008 45.465-26.25 9.3789-16.242 9.3789-36.258 0-52.5-9.375-16.242-26.707-26.25-45.465-26.25h-262.5c-18.758 0-36.09 10.008-45.465 26.25-9.3789 16.242-9.3789 36.258 0 52.5 9.375 16.242 26.707 26.25 45.465 26.25zm0-70h262.5c6.2539 0 12.031 3.3359 15.156 8.75s3.125 12.086 0 17.5-8.9023 8.75-15.156 8.75h-262.5c-6.2539 0-12.031-3.3359-15.156-8.75s-3.125-12.086 0-17.5 8.9023-8.75 15.156-8.75zm262.5 157.5h-262.5c-18.758 0-36.09 10.008-45.465 26.25-9.3789 16.242-9.3789 36.258 0 52.5 9.375 16.242 26.707 26.25 45.465 26.25h262.5c18.758 0 36.09-10.008 45.465-26.25 9.3789-16.242 9.3789-36.258 0-52.5-9.375-16.242-26.707-26.25-45.465-26.25zm0 70h-262.5c-6.2539 0-12.031-3.3359-15.156-8.75s-3.125-12.086 0-17.5 8.9023-8.75 15.156-8.75h262.5c6.2539 0 12.031 3.3359 15.156 8.75s3.125 12.086 0 17.5-8.9023 8.75-15.156 8.75zm0 122.5h-262.5c-18.758 0-36.09 10.008-45.465 26.25-9.3789 16.242-9.3789 36.258 0 52.5 9.375 16.242 26.707 26.25 45.465 26.25h262.5c18.758 0 36.09-10.008 45.465-26.25 9.3789-16.242 9.3789-36.258 0-52.5-9.375-16.242-26.707-26.25-45.465-26.25zm0 70h-262.5c-6.2539 0-12.031-3.3359-15.156-8.75s-3.125-12.086 0-17.5 8.9023-8.75 15.156-8.75h262.5c6.2539 0 12.031 3.3359 15.156 8.75s3.125 12.086 0 17.5-8.9023 8.75-15.156 8.75zm-332.5-402.5c0.035156-12.906-4.6836-25.371-13.254-35.02-8.5703-9.6445-20.395-15.797-33.215-17.281-12.816-1.4805-25.734 1.8086-36.281 9.2461-10.547 7.4336-17.988 18.496-20.898 31.066-2.9102 12.574-1.0859 25.777 5.1211 37.09 6.2031 11.316 16.359 19.945 28.527 24.25v93.801-0.003906c-13.598 4.9375-24.555 15.262-30.289 28.543-5.7344 13.281-5.7344 28.336 0 41.617 5.7344 13.281 16.691 23.605 30.289 28.543v93.801-0.003906c-15.695 5.5508-27.828 18.215-32.699 34.133-4.875 15.918-1.9102 33.203 7.9922 46.586 9.8984 13.387 25.559 21.281 42.207 21.281s32.309-7.8945 42.207-21.281c9.9023-13.383 12.867-30.668 7.9922-46.586-4.8711-15.918-17.004-28.582-32.699-34.133v-93.797c13.598-4.9375 24.555-15.262 30.289-28.543 5.7344-13.281 5.7344-28.336 0-41.617-5.7344-13.281-16.691-23.605-30.289-28.543v-93.797c10.211-3.6133 19.059-10.293 25.324-19.129 6.2656-8.8359 9.6445-19.391 9.6758-30.223zm-52.5 402.5c-4.6406 0-9.0938-1.8438-12.375-5.125s-5.125-7.7344-5.125-12.375 1.8438-9.0938 5.125-12.375 7.7344-5.125 12.375-5.125 9.0938 1.8438 12.375 5.125 5.125 7.7344 5.125 12.375-1.8438 9.0938-5.125 12.375-7.7344 5.125-12.375 5.125zm0-192.5c-4.6406 0-9.0938-1.8438-12.375-5.125s-5.125-7.7344-5.125-12.375 1.8438-9.0938 5.125-12.375 7.7344-5.125 12.375-5.125 9.0938 1.8438 12.375 5.125 5.125 7.7344 5.125 12.375-1.8438 9.0938-5.125 12.375-7.7344 5.125-12.375 5.125zm0-192.5c-4.6406 0-9.0938-1.8438-12.375-5.125s-5.125-7.7344-5.125-12.375 1.8438-9.0938 5.125-12.375 7.7344-5.125 12.375-5.125 9.0938 1.8438 12.375 5.125 5.125 7.7344 5.125 12.375-1.8438 9.0938-5.125 12.375-7.7344 5.125-12.375 5.125z"/>
</svg>
