<svg width="25" height="23" viewBox="0 0 25 23" fill="none" xmlns="http://www.w3.org/2000/svg">
<path fill-rule="evenodd" clip-rule="evenodd" d="M0.504035 0.131802C0.983552 -0.142208 1.59441 0.0243891 1.86842 0.503907L4.3096 4.77597C5.92486 3.65619 7.88589 3.00005 10.0002 3.00005H15.0002C17.1145 3.00005 19.0755 3.6562 20.6908 4.77597L23.1319 0.503907C23.4059 0.0243891 24.0168 -0.142208 24.4963 0.131802C24.9758 0.405812 25.1424 1.01667 24.8684 1.49618L22.2379 6.09962C23.9493 7.8942 25.0002 10.3244 25.0002 13V16C25.0002 19.866 21.8662 23 18.0002 23H7.00017C3.13418 23 0.000173582 19.866 0.000173582 16V13C0.000173582 10.3244 1.051 7.8942 2.76246 6.09962L0.13193 1.49618C-0.14208 1.01667 0.0245172 0.405812 0.504035 0.131802ZM7.00017 11C4.79103 11 3.00017 12.7909 3.00017 15C3.00017 17.2092 4.79103 19 7.00017 19H18.0002C20.2093 19 22.0002 17.2092 22.0002 15C22.0002 12.7909 20.2093 11 18.0002 11H7.00017ZM9.00017 14C10.6002 14 11.0002 15.3334 11.0002 16C11.0002 16 9.80526 15.5 9.00017 15.5C8.19509 15.5 7.00017 16 7.00017 16C7.00017 15.3334 7.40017 14 9.00017 14ZM18.0002 16C18.0002 15.3334 17.6002 14 16.0002 14C14.4002 14 14.0002 15.3334 14.0002 16C14.0002 16 15.1951 15.5 16.0002 15.5C16.8053 15.5 18.0002 16 18.0002 16Z" fill="black"/>
</svg>
