<svg width="17" height="18" viewBox="0 0 17 18" fill="none" xmlns="http://www.w3.org/2000/svg">
<path fill-rule="evenodd" clip-rule="evenodd" d="M11.3891 3.71736C13.537 5.86524 13.537 9.34765 11.3891 11.4955C9.2412 13.6434 5.7588 13.6434 3.61091 11.4955C1.46303 9.34765 1.46303 5.86524 3.61091 3.71736C5.7588 1.56947 9.2412 1.56947 11.3891 3.71736ZM13.0064 12.6987C15.7306 9.75696 15.6629 5.16273 12.8033 2.30314C9.87437 -0.625788 5.12563 -0.625788 2.1967 2.30314C-0.732233 5.23208 -0.732233 9.98081 2.1967 12.9097C4.71038 15.4234 8.56444 15.7798 11.4582 13.9789L14.8284 17.3491C15.2189 17.7396 15.8521 17.7396 16.2426 17.3491C16.6331 16.9586 16.6331 16.3254 16.2426 15.9349L13.0064 12.6987Z" fill="#000000"/>
</svg>
