<svg width="21" height="22" viewBox="0 0 21 22" fill="none" xmlns="http://www.w3.org/2000/svg">
<path fill-rule="evenodd" clip-rule="evenodd" d="M8.00003 1C8.00003 0.447723 8.44774 0 9.00003 0H12C12.5523 0 13 0.447723 13 1V2.47684C13 2.93312 13.3115 3.32532 13.7402 3.4816C14.3966 3.7209 15.0129 4.04373 15.5761 4.43722C15.9204 4.6777 16.3731 4.72244 16.7368 4.51248L17.9102 3.83496C18.3886 3.55881 19.0001 3.72269 19.2763 4.20099L20.7763 6.79907C21.0524 7.27734 20.8886 7.88895 20.4102 8.1651L19.4234 8.73488C19.0391 8.95673 18.8535 9.40453 18.917 9.84364C18.9717 10.2212 19 10.6073 19 11C19 11.3927 18.9717 11.7788 18.917 12.1564C18.8535 12.5955 19.0391 13.0433 19.4233 13.2652L20.4102 13.835C20.8886 14.1111 21.0524 14.7227 20.7763 15.201L19.2763 17.7991C19.0001 18.2773 18.3886 18.4412 17.9102 18.1651L16.7367 17.4876C16.373 17.2776 15.9203 17.3223 15.5761 17.5628C15.0128 17.9563 14.3966 18.2791 13.7402 18.5184C13.3115 18.6747 13 19.0669 13 19.5232V21C13 21.5523 12.5523 22 12 22H9.00003C8.44774 22 8.00003 21.5523 8.00003 21V19.0925C8.00003 18.6851 7.75005 18.3237 7.38669 18.1394C6.90871 17.897 6.45834 17.6081 6.04157 17.2785C5.6933 17.003 5.21227 16.9397 4.82774 17.1617L3.08977 18.1651C2.61147 18.4412 1.99988 18.2773 1.72374 17.7991L0.223742 15.201C-0.0523963 14.7227 0.111468 14.1111 0.58977 13.835L2.5133 12.7244C2.87643 12.5148 3.06412 12.1012 3.02878 11.6833C3.00972 11.4581 3 11.2302 3 11C3 10.7698 3.00972 10.542 3.02877 10.3167C3.06411 9.8989 2.87643 9.4853 2.51329 9.27565L0.58977 8.1651C0.111468 7.88895 -0.0523963 7.27734 0.223742 6.79907L1.72374 4.20099C1.99988 3.72269 2.61147 3.55881 3.08977 3.83496L4.8277 4.83836C5.21223 5.06037 5.69326 4.99699 6.04153 4.72156C6.45831 4.39196 6.90869 4.10297 7.38669 3.86057C7.75005 3.67631 8.00003 3.31487 8.00003 2.90747V1ZM15 11C15 13.2091 13.2091 15 11 15C8.79086 15 7 13.2091 7 11C7 8.79086 8.79086 7 11 7C13.2091 7 15 8.79086 15 11Z" fill="black"/>
</svg>
