<svg width="24" height="26" viewBox="0 0 24 26" fill="none" xmlns="http://www.w3.org/2000/svg">
<path fill-rule="evenodd" clip-rule="evenodd" d="M3.12977 15.4406C3.66641 13.5114 5.37507 10.5001 9.00002 10.5001C14 10.5001 17.5 8.00005 17.5 7.00005C17.5 6.49469 18.0108 6.37241 18.5161 6.76227C18.617 6.8909 18.7117 7.0256 18.7995 7.16605C19.2521 7.89028 19.4945 8.72587 19.4999 9.57952C19.4979 10.4856 19.4613 11.607 19.4247 12.7326C19.3394 15.3548 19.2532 18 19.6 18H20.9632C20.9722 18.3075 20.9235 18.5552 20.8177 18.7664C20.553 19.295 19.8778 20 18 20H17.9852H17.9703H17.9555H17.9407H17.926H17.9112H17.8964H17.8817H17.867H17.8523H17.8376H17.8229H17.8083H17.7936H17.779H17.7644H17.7498H17.7352H17.7207H17.7061H17.6916H17.6771H17.6626H17.6481H17.6336H17.6192H17.6047H17.5903H17.5759H17.5615H17.5472H17.5328H17.5185H17.5041H17.4898H17.4755H17.4612H17.447H17.4327H17.4185H17.4043H17.3901H17.3759H17.3617H17.3476H17.3334H17.3193H17.3052H17.2911H17.277H17.2629H17.2489H17.2349H17.2209H17.2069H17.1929H17.1789H17.1649H17.151H17.1371H17.1232H17.1093H17.0954H17.0816H17.0677H17.0539H17.0401H17.0263H17.0125H16.9987H16.985H16.9713H16.9575H16.9438H16.9302H16.9165H16.9028H16.8892H16.8756H16.862H16.8484H16.8348H16.8212H16.8077H16.7942H16.7807H16.7672H16.7537H16.7402H16.7268H16.7133H16.6999H16.6865H16.6731H16.6598H16.6464H16.6331H16.6198H16.6064H16.5932H16.5799H16.5666H16.5534H16.5401H16.5269H16.5137H16.5006H16.4874H16.4742H16.4611H16.448H16.4349H16.4218H16.4087H16.3957H16.3827H16.3696H16.3566H16.3436H16.3307H16.3177H16.3048H16.2918H16.2789H16.266H16.2531H16.2403H16.2274H16.2146H16.2018H16.189H16.1762H16.1634H16.1507H16.138H16.1252H16.1125H16.0998H16.0872H16.0745H16.0619H16.0492H16.0366H16.024H16.0115H15.9989H15.9864H15.9738H15.9613H15.9488H15.9363H15.9239H15.9114H15.899H15.8866H15.8742H15.8618H15.8494H15.8371H15.8247H15.8124H15.8001H15.7878H15.7756H15.7633H15.7511H15.7388H15.7266H15.7144H15.7023H15.6901H15.678H15.6658H15.6537H15.6416H15.6295H15.6175H15.6054H15.5934H15.5814H15.5694H15.5574H15.5454H15.5335H15.5215H15.5096H15.4977H15.4858H15.474H15.4621H15.4503H15.4384H15.4266H15.4148H15.4031H15.3913H15.3796H15.3678H15.3561H15.3444H15.3327H15.3211H15.3094H15.2978H15.2862H15.2746H15.263H15.2515H15.2399H15.2284H15.2169H15.2054H15.1939H15.1824H15.1709H15.1595H15.1481H15.1367H15.1253H15.1139H15.1026H15.0912H15.0799H15.0686H15.0573H15.046H15.0348H15.0235H15.0123H15.0011H14.9899H14.9863C14.8619 18.8751 13.9081 18 12.75 18H12.5C11.3954 18 10.5 18.8955 10.5 20C10.5 21.1032 11.3929 22 12.4989 22H12.5054H12.5119H12.5185H12.5251H12.5316H12.5382H12.5448H12.5515H12.5581H12.5648H12.5715H12.5782H12.5849H12.5916H12.5984H12.6051H12.6119H12.6187H12.6256H12.6324H12.6392H12.6461H12.653H12.6599H12.6668H12.6738H12.6807H12.6877H12.6947H12.7017H12.7087H12.7158H12.7228H12.7299H12.737H12.7441H12.7512H12.7584H12.7655H12.7727H12.7799H12.7871H12.7943H12.8016H12.8088H12.8161H12.8234H12.8307H12.838H12.8454H12.8528H12.8601H12.8675H12.8749H12.8824H12.8898H12.8973H12.9048H12.9123H12.9198H12.9273H12.9349H12.9424H12.95H12.9576H12.9652H12.9729H12.9805H12.9882H12.9959H13.0036H13.0113H13.019H13.0268H13.0345H13.0423H13.0501H13.058H13.0658H13.0736H13.0815H13.0894H13.0973H13.1052H13.1132H13.1211H13.1291H13.1371H13.1451H13.1531H13.1611H13.1692H13.1773H13.1854H13.1935H13.2016H13.2097H13.2179H13.226H13.2342H13.2424H13.2507H13.2589H13.2672H13.2754H13.2837H13.292H13.3004H13.3087H13.3171H13.3254H13.3338H13.3422H13.3507H13.3591H13.3675H13.376H13.3845H13.393H13.4015H13.4101H13.4186H13.4272H13.4358H13.4444H13.453H13.4617H13.4703H13.479H13.4877H13.4964H13.5051H13.5139H13.5226H13.5314H13.5402H13.549H13.5578H13.5667H13.5755H13.5844H13.5933H13.6022H13.6111H13.6201H13.629H13.638H13.647H13.656H13.665H13.6741H13.6831H13.6922H13.7013H13.7104H13.7195H13.7287H13.7378H13.747H13.7562H13.7654H13.7746H13.7839H13.7931H13.8024H13.8117H13.821H13.8303H13.8397H13.849H13.8584H13.8678H13.8772H13.8866H13.8961H13.9055H13.915H13.9245H13.934H13.9435H13.9531H13.9626H13.9722H13.9818H13.9914H14.001H14.0106H14.0203H14.03H14.0396H14.0493H14.0591H14.0688H14.0786H14.0883H14.0981H14.1079H14.1177H14.1276H14.1374H14.1473H14.1572H14.1671H14.177H14.1869H14.1969H14.2069H14.2168H14.2268H14.2369H14.2469H14.2569H14.267H14.2771H14.2872H14.2973H14.3074H14.3176H14.3278H14.3379H14.3481H14.3583H14.3686H14.3788H14.3891H14.3994H14.4097H14.42H14.4303H14.4407H14.451H14.4614H14.4718H14.4822H14.4926H14.5031H14.5135H14.524H14.5345H14.545H14.5555H14.5661H14.5766H14.5872H14.5978H14.6084H14.619H14.6297H14.6403H14.651H14.6617H14.6724H14.6831H14.6938H14.7046H14.7154H14.7262H14.737H14.7478H14.7586H14.7695H14.7803H14.7912H14.8021H14.813H14.824H14.8349H14.8459H14.8569H14.8679H14.8789H14.8899H14.901H14.912H14.9231H14.9342H14.9453H14.9564H14.9676H14.9787H14.9899H15.0011H15.0123H15.0235H15.0348H15.046H15.0573H15.0686H15.0799H15.0912H15.1026H15.1139H15.1253H15.1367H15.1481H15.1595H15.1709H15.1824H15.1939H15.2054H15.2169H15.2284H15.2399H15.2515H15.263H15.2746H15.2862H15.2978H15.3094H15.3211H15.3327H15.3444H15.3561H15.3678H15.3796H15.3913H15.4031H15.4148H15.4266H15.4384H15.4503H15.4621H15.474H15.4858H15.4977H15.5096H15.5215H15.5335H15.5454H15.5574H15.5694H15.5814H15.5934H15.6054H15.6175H15.6295H15.6416H15.6537H15.6658H15.678H15.6901H15.7023H15.7144H15.7266H15.7388H15.7511H15.7633H15.7756H15.7878H15.8001H15.8124H15.8247H15.8371H15.8494H15.8618H15.8742H15.8866H15.899H15.9114H15.9239H15.9363H15.9488H15.9613H15.9738H15.9864H15.9989H16.0115H16.024H16.0366H16.0492H16.0619H16.0745H16.0872H16.0998H16.1125H16.1252H16.138H16.1507H16.1634H16.1762H16.189H16.2018H16.2146H16.2274H16.2403H16.2531H16.266H16.2789H16.2918H16.3048H16.3177H16.3307H16.3436H16.3566H16.3696H16.3827H16.3957H16.4087H16.4218H16.4349H16.448H16.4611H16.4742H16.4874H16.5006H16.5137H16.5269H16.5401H16.5534H16.5666H16.5799H16.5932H16.6064H16.6198H16.6331H16.6464H16.6598H16.6731H16.6865H16.6999H16.7133H16.7268H16.7402H16.7537H16.7672H16.7807H16.7942H16.8077H16.8212H16.8348H16.8484H16.862H16.8756H16.8892H16.9028H16.9165H16.9302H16.9438H16.9575H16.9713H16.985H16.9987H17.0125H17.0263H17.0401H17.0539H17.0677H17.0816H17.0954H17.1093H17.1232H17.1371H17.151H17.1649H17.1789H17.1929H17.2069H17.2209H17.2349H17.2489H17.2629H17.277H17.2911H17.3052H17.3193H17.3334H17.3476H17.3617H17.3759H17.3901H17.4043H17.4185H17.4327H17.447H17.4612H17.4755H17.4898H17.5041H17.5185H17.5328H17.5472H17.5615H17.5759H17.5903H17.6047H17.6192H17.6336H17.6481H17.6626H17.6771H17.6916H17.7061H17.7207H17.7352H17.7498H17.7644H17.779H17.7936H17.8083H17.8229H17.8376H17.8523H17.867H17.8817H17.8964H17.9112H17.926H17.9407H17.9555H17.9703H17.9852H18C20.4761 22 21.9365 20.9986 22.6059 19.6621C22.8849 19.1052 22.9722 18.5352 22.9636 18H23.0006C23.5529 18 24 17.5523 24 17V14.4586C24 14.2053 23.7947 14 23.5414 14C23.258 14 23.0423 13.7465 23.0702 13.4644C23.3791 10.3337 22.3024 4.85901 19 2.50005C15.5 -5.79953e-05 8.50002 -0.999983 3.50002 4.00002C0.605512 6.89453 0.50373 10.6618 1.11063 13.4072C1.0376 13.9131 1 14.4285 1 14.9505C1 17.8085 2.13471 20.549 4.15575 22.57L4.232 22.6463L4.30922 22.7235L4.31408 22.7283L4.31895 22.7332L4.32868 22.7429L4.3482 22.7625L4.35798 22.7722L4.36778 22.782L4.38741 22.8017L4.42687 22.8411L4.43678 22.851L4.43801 22.8523L4.43925 22.8535L4.44049 22.8548L4.44173 22.856L4.44669 22.861L4.45663 22.8709L4.46657 22.8808L4.5467 22.961L4.58713 23.0014L4.6278 23.0421L4.66871 23.083L4.70986 23.1241L4.72019 23.1344L4.73053 23.1448L4.75126 23.1655L4.75385 23.1681L4.75645 23.1707L4.76164 23.1759L4.77205 23.1863L4.77725 23.1915L4.78246 23.1967L4.78768 23.2019L4.79289 23.2072C6.92672 25.341 9.00076 26 10 26H15.5C16.0523 26 16.5 25.5523 16.5 25C16.5 24.4478 16.0523 24 15.5 24H10C9.66591 24 8.07328 23.6591 6.20711 21.7929L6.19668 21.7825L6.19147 21.7773L6.18626 21.7721L6.18366 21.7695L6.18106 21.7669L6.17846 21.7643L6.17586 21.7617L6.16547 21.7513L6.12407 21.7099L6.11376 21.6996L6.11119 21.697L6.1099 21.6957L6.10861 21.6944L6.10604 21.6919L6.10347 21.6893L6.08292 21.6688L6.04201 21.6278L5.88079 21.4666L5.72344 21.3093L5.64622 21.2321L5.56997 21.1558C4.09292 19.6788 3.19715 17.7299 3.02894 15.6631C3.07314 15.5957 3.10749 15.5207 3.12977 15.4406Z" fill="black"/>
</svg>
