<svg width="29" height="26" viewBox="0 0 29 26" fill="none" xmlns="http://www.w3.org/2000/svg">
<path fill-rule="evenodd" clip-rule="evenodd" d="M20.5207 8C22.7298 8 24.5207 6.20914 24.5207 4C24.5207 1.79086 22.7298 0 20.5207 0C18.3116 0 16.5207 1.79086 16.5207 4C16.5207 6.20914 18.3116 8 20.5207 8ZM13.0207 17.5263V13.5C12.854 12 13.6207 8.99997 18.0207 8.99997C18.4884 8.99997 18.9488 8.99636 19.3999 8.99282C24.2534 8.95471 28.0207 8.92513 28.0207 13.5V17.5269C28.0207 18.1718 27.8511 18.8135 27.2694 19.092C26.3933 19.5115 24.5155 20 20.5207 20C16.5259 20 14.648 19.5115 13.7719 19.092C13.1903 18.8135 13.0207 18.1712 13.0207 17.5263Z" fill="black"/>
<path fill-rule="evenodd" clip-rule="evenodd" d="M7.52069 8C9.72983 8 11.5207 6.20914 11.5207 4C11.5207 1.79086 9.72983 0 7.52069 0C5.31155 0 3.52069 1.79086 3.52069 4C3.52069 6.20914 5.31155 8 7.52069 8ZM0.0206976 17.5263V13.5C-0.145969 12 0.620697 8.99997 5.0207 8.99997C5.48837 8.99997 5.94881 8.99636 6.39987 8.99282C11.2534 8.95471 15.0207 8.92513 15.0207 13.5V17.5269C15.0207 18.1718 14.8511 18.8135 14.2694 19.092C13.3933 19.5115 11.5155 20 7.52069 20C3.52592 20 1.64805 19.5115 0.77194 19.092C0.190288 18.8135 0.0206976 18.1712 0.0206976 17.5263Z" fill="black"/>
<path fill-rule="evenodd" clip-rule="evenodd" d="M14 13C16.2091 13 18 11.2091 18 9C18 6.79086 16.2091 5 14 5C11.7909 5 10 6.79086 10 9C10 11.2091 11.7909 13 14 13ZM6.50001 22.5263V18.5C6.33334 17 7.10001 14 11.5 14C11.9677 14 12.4281 13.9964 12.8792 13.9928C17.7328 13.9547 21.5 13.9251 21.5 18.5V22.5269C21.5 23.1718 21.3304 23.8135 20.7488 24.092C19.8727 24.5115 17.9948 25 14 25C10.0052 25 8.12736 24.5115 7.25125 24.092C6.6696 23.8135 6.50001 23.1712 6.50001 22.5263Z" fill="black"/>
<path d="M6.50001 18.5H7.50001V18.4446L7.49389 18.3895L6.50001 18.5ZM12.8792 13.9928L12.887 14.9928H12.887L12.8792 13.9928ZM20.7488 24.092L20.3169 23.1901L20.7488 24.092ZM7.25125 24.092L7.68309 23.1901H7.68309L7.25125 24.092ZM17 9C17 10.6569 15.6569 12 14 12V14C16.7614 14 19 11.7614 19 9H17ZM14 6C15.6569 6 17 7.34315 17 9H19C19 6.23858 16.7614 4 14 4V6ZM11 9C11 7.34315 12.3432 6 14 6V4C11.2386 4 9 6.23858 9 9H11ZM14 12C12.3432 12 11 10.6569 11 9H9C9 11.7614 11.2386 14 14 14V12ZM5.50001 18.5V22.5263H7.50001V18.5H5.50001ZM11.5 13C9.05255 13 7.44027 13.8482 6.49476 15.0779C5.58408 16.2623 5.40067 17.6613 5.50613 18.6104L7.49389 18.3895C7.43268 17.8386 7.54928 16.9876 8.08027 16.297C8.57641 15.6517 9.54747 15 11.5 15V13ZM12.8713 12.9928C12.4197 12.9964 11.9631 13 11.5 13V15C11.9722 15 12.4366 14.9963 12.887 14.9928L12.8713 12.9928ZM22.5 18.5C22.5 17.2226 22.2368 16.1548 21.6662 15.3035C21.0905 14.4448 20.2708 13.909 19.3496 13.5761C17.5935 12.9414 15.2257 12.9744 12.8713 12.9928L12.887 14.9928C15.3862 14.9732 17.3288 14.9723 18.6698 15.457C19.2971 15.6837 19.7225 15.996 20.0049 16.4172C20.2923 16.8459 20.5 17.4899 20.5 18.5H22.5ZM22.5 22.5269V18.5H20.5V22.5269H22.5ZM21.1806 24.994C22.3141 24.4512 22.5 23.2603 22.5 22.5269H20.5C20.5 22.7737 20.4658 22.9511 20.4196 23.0618C20.3815 23.1531 20.348 23.1752 20.3169 23.1901L21.1806 24.994ZM14 26C18.0466 26 20.103 25.5099 21.1806 24.994L20.3169 23.1901C19.6423 23.5131 17.943 24 14 24V26ZM6.81941 24.994C7.897 25.5099 9.9534 26 14 26V24C10.0571 24 8.35773 23.5131 7.68309 23.1901L6.81941 24.994ZM5.50001 22.5263C5.50001 23.2594 5.68567 24.4511 6.81942 24.994L7.68309 23.1901C7.65223 23.1753 7.61869 23.1533 7.58047 23.0617C7.53421 22.9507 7.50001 22.7732 7.50001 22.5263H5.50001Z" fill="white"/>
</svg>
