<svg width="32" height="36" viewBox="0 0 32 36" fill="none" xmlns="http://www.w3.org/2000/svg">
<rect y="2" width="32" height="32" fill="#000"/>
<path d="M12.108 27V26.454L13.148 26.246C13.876 26.09 14.24 25.6653 14.24 24.972V17.874C14.24 16.6607 14.24 15.4473 14.24 14.234C14.24 13.0207 14.2313 11.8073 14.214 10.594H12.16C11.6053 10.594 11.198 10.7413 10.938 11.036C10.678 11.3307 10.418 11.7467 10.158 12.284L9.248 14.208H8.52L8.65 9.814H23.574L23.704 14.208H22.976L22.066 12.284C21.806 11.7467 21.546 11.3307 21.286 11.036C21.026 10.7413 20.6187 10.594 20.064 10.594H17.984V24.972C17.984 25.6827 18.348 26.1073 19.076 26.246L20.142 26.454V27H12.108Z" fill="white"/>
</svg>
