<svg width="25" height="20" viewBox="0 0 25 20" fill="none" xmlns="http://www.w3.org/2000/svg">
<path fill-rule="evenodd" clip-rule="evenodd" d="M7 0H3C1.34314 0 0 1.34314 0 3V17C0 18.6569 1.34314 20 3 20H22C23.6569 20 25 18.6569 25 17V3C25 1.34314 23.6569 0 22 0H17V3.08533C17.5826 3.29126 18 3.84686 18 4.5C18 5.32843 17.3284 6 16.5 6C15.6716 6 15 5.32843 15 4.5C15 3.84686 15.4174 3.29126 16 3.08533V0H8V3.08533C8.5826 3.29126 9 3.84686 9 4.5C9 5.32843 8.32843 6 7.5 6C6.67157 6 6 5.32843 6 4.5C6 3.84686 6.4174 3.29126 7 3.08533V0ZM8.5 10.5C8.5 11.3284 7.82843 12 7 12C6.17157 12 5.5 11.3284 5.5 10.5C5.5 9.67157 6.17157 9 7 9C7.82843 9 8.5 9.67157 8.5 10.5ZM7 12C6.60603 12 6.21593 12.0776 5.85194 12.2283C5.48798 12.3792 5.15726 12.6001 4.87868 12.8787C4.6001 13.1572 4.37912 13.488 4.22836 13.8519C4.07759 14.2159 4 14.606 4 15H7H10C10 14.606 9.92241 14.2159 9.77164 13.8519C9.62088 13.488 9.3999 13.1572 9.12132 12.8787C8.84274 12.6001 8.51202 12.3792 8.14806 12.2283C7.78407 12.0776 7.39397 12 7 12ZM12 9V11H20V9H12ZM20 13V15H12V13H20Z" fill="black"/>
</svg>
