<svg width="30" height="30" viewBox="0 0 50 50" fill="none" xmlns="http://www.w3.org/2000/svg">
<circle cx="25" cy="25" r="25" fill="#E5E5E5"/>
<path d="M25.64 17.664V21.192H28.016V24.024H25.64V28.968C25.64 29.464 25.752 29.816 25.976 30.024C26.2 30.232 26.552 30.336 27.032 30.336C27.464 30.336 27.792 30.304 28.016 30.24V32.88C27.552 33.072 26.952 33.168 26.216 33.168C25.064 33.168 24.152 32.848 23.48 32.208C22.808 31.552 22.472 30.656 22.472 29.52V24.024H20.336V21.192H20.936C21.528 21.192 21.976 21.024 22.28 20.688C22.6 20.336 22.76 19.88 22.76 19.32V17.664H25.64Z" fill="black"/>
</svg>
