<svg width="81" height="91" viewBox="0 0 81 91" fill="none" xmlns="http://www.w3.org/2000/svg">
<path fill-rule="evenodd" clip-rule="evenodd" d="M8 6H29C30.1046 6 31 6.89543 31 8V42C31 43.1046 30.1046 44 29 44H8C6.89543 44 6 43.1046 6 42V8C6 6.89543 6.89543 6 8 6ZM0 8C0 3.58172 3.58172 0 8 0H29C33.4183 0 37 3.58172 37 8V42C37 46.4183 33.4183 50 29 50H8C3.58172 50 0 46.4183 0 42V8ZM52 6H73C74.1046 6 75 6.89543 75 8V26C75 27.1046 74.1046 28 73 28H52C50.8954 28 50 27.1046 50 26V8C50 6.89543 50.8954 6 52 6ZM44 8C44 3.58172 47.5817 0 52 0H73C77.4183 0 81 3.58172 81 8V26C81 30.4183 77.4183 34 73 34H52C47.5817 34 44 30.4183 44 26V8ZM29 63H8C6.89543 63 6 63.8954 6 65V83C6 84.1046 6.89543 85 8 85H29C30.1046 85 31 84.1046 31 83V65C31 63.8954 30.1046 63 29 63ZM8 57C3.58172 57 0 60.5817 0 65V83C0 87.4183 3.58172 91 8 91H29C33.4183 91 37 87.4183 37 83V65C37 60.5817 33.4183 57 29 57H8ZM52 47H73C74.1046 47 75 47.8954 75 49V83C75 84.1046 74.1046 85 73 85H52C50.8954 85 50 84.1046 50 83V49C50 47.8954 50.8954 47 52 47ZM44 49C44 44.5817 47.5817 41 52 41H73C77.4183 41 81 44.5817 81 49V83C81 87.4183 77.4183 91 73 91H52C47.5817 91 44 87.4183 44 83V49Z" fill="#000000"/>
</svg>
