<svg width="81" height="95" viewBox="0 0 81 95" fill="none" xmlns="http://www.w3.org/2000/svg">
<path fill-rule="evenodd" clip-rule="evenodd" d="M40.5 6.92859C21.4462 6.92859 6 22.3748 6 41.4286C6 60.4824 21.4462 75.9286 40.5 75.9286C59.5538 75.9286 75 60.4824 75 41.4286C75 22.3748 59.5538 6.92859 40.5 6.92859ZM0 41.4286C0 19.0611 18.1324 0.928589 40.5 0.928589C62.8676 0.928589 81 19.0611 81 41.4286C81 62.7142 64.5792 80.1646 43.7144 81.8029V87.5H65.6786C67.7496 87.5 69.4286 89.1789 69.4286 91.25C69.4286 93.3211 67.7496 95 65.6786 95H14.25C12.179 95 10.5 93.3211 10.5 91.25C10.5 89.1789 12.179 87.5 14.25 87.5H36.2144V81.7045C15.8615 79.5639 0 62.3486 0 41.4286ZM40.4999 30.5C34.4642 30.5 29.5713 35.3929 29.5713 41.4286C29.5713 47.4643 34.4642 52.3571 40.4999 52.3571C46.5355 52.3571 51.4285 47.4643 51.4285 41.4286C51.4285 35.3929 46.5355 30.5 40.4999 30.5ZM23.5713 41.4286C23.5713 32.0792 31.1505 24.5 40.4999 24.5C49.8492 24.5 57.4285 32.0792 57.4285 41.4286C57.4285 50.778 49.8492 58.3571 40.4999 58.3571C31.1505 58.3571 23.5713 50.778 23.5713 41.4286ZM40.2856 41.4285C40.2856 41.5469 40.3816 41.6428 40.4999 41.6428C40.6183 41.6428 40.7142 41.5469 40.7142 41.4285C40.7142 41.3102 40.6183 41.2143 40.4999 41.2143C40.3816 41.2143 40.2856 41.3102 40.2856 41.4285ZM40.4999 47.6428C37.0679 47.6428 34.2856 44.8606 34.2856 41.4285C34.2856 37.9965 37.0679 35.2143 40.4999 35.2143C43.932 35.2143 46.7142 37.9965 46.7142 41.4285C46.7142 44.8606 43.932 47.6428 40.4999 47.6428Z" fill="#000000"/>
</svg>
