<svg width="111" height="92" viewBox="0 0 111 92" fill="none" xmlns="http://www.w3.org/2000/svg">
<path fill-rule="evenodd" clip-rule="evenodd" d="M80.8547 3C80.8547 4.65685 82.1979 6 83.8547 6H100.116L69.9812 36.1351C68.8097 37.3067 68.8097 39.2062 69.9812 40.3777C71.1528 41.5493 73.0523 41.5493 74.2239 40.3777L104.359 10.2426V27.4444C104.359 29.1013 105.702 30.4444 107.359 30.4444C109.016 30.4444 110.359 29.1013 110.359 27.4444V3C110.359 1.34315 109.016 0 107.359 0H83.8547C82.1979 0 80.8547 1.34315 80.8547 3ZM15 6.47009C10.0294 6.47009 6 10.4995 6 15.4701V61.0427C6 66.0133 10.0294 70.0427 15 70.0427H95.359C100.33 70.0427 104.359 66.0133 104.359 61.0427V45.7778C104.359 44.1209 105.702 42.7778 107.359 42.7778C109.016 42.7778 110.359 44.1209 110.359 45.7778V61.0427C110.359 69.327 103.643 76.0427 95.359 76.0427H15C6.71574 76.0427 0 69.327 0 61.0427V15.4701C0 7.18581 6.71573 0.470085 15 0.470085H66.4615C68.1184 0.470085 69.4615 1.81323 69.4615 3.47009C69.4615 5.12694 68.1184 6.47009 66.4615 6.47009H15ZM21.2583 88.5032C21.2583 86.8464 22.6014 85.5032 24.2583 85.5032H88.0332C89.6901 85.5032 91.0332 86.8464 91.0332 88.5032C91.0332 90.1601 89.6901 91.5032 88.0332 91.5032H24.2583C22.6014 91.5032 21.2583 90.1601 21.2583 88.5032Z" fill="#000000"/>
</svg>
