<svg width="148" height="116" viewBox="0 0 148 116" fill="none" xmlns="http://www.w3.org/2000/svg">
<path fill-rule="evenodd" clip-rule="evenodd" d="M57.6818 13C57.6818 5.82031 63.5021 0 70.6818 0H134.364C141.543 0 147.364 5.8203 147.364 13V42.5454C147.364 49.7251 141.543 55.5455 134.364 55.5455H98.3597C96.9729 55.5455 95.6268 56.0096 94.5288 56.8665C91.5156 59.2181 86.1816 63.3593 80.7868 67.4418C77.8798 69.6415 74.1909 69.797 71.7491 67.4365C69.343 65.1106 69.2958 61.4382 71.2712 58.4114C72.0756 57.1788 71.1912 55.5455 69.7193 55.5455H67.0048C61.8559 55.5455 57.6818 51.3714 57.6818 46.2225V13ZM70.6818 6C66.8158 6 63.6818 9.13401 63.6818 13V46.2225C63.6818 48.0577 65.1696 49.5455 67.0048 49.5455H69.7193C75.9568 49.5455 79.7048 56.4671 76.2958 61.6906C75.8971 62.3014 75.8517 62.7191 75.8604 62.9037C75.865 63.0008 75.8845 63.058 75.8963 63.085C75.9083 63.1122 75.9181 63.1215 75.9193 63.1227L75.9194 63.1228C75.9205 63.1239 75.924 63.1273 75.936 63.132C75.9479 63.1367 75.9863 63.1497 76.0615 63.1493C76.2013 63.1486 76.5868 63.0957 77.1662 62.6573C82.5269 58.6006 87.8346 54.48 90.8372 52.1366C92.985 50.4603 95.6292 49.5455 98.3597 49.5455H134.364C138.23 49.5455 141.364 46.4114 141.364 42.5454V13C141.364 9.134 138.23 6 134.364 6H70.6818ZM6 38C6 34.134 9.13401 31 13 31H46.6818C48.3387 31 49.6818 29.6569 49.6818 28C49.6818 26.3431 48.3387 25 46.6818 25H13C5.8203 25 0 30.8203 0 38V87.5455C0 94.7252 5.8203 100.545 13 100.545H97.3182C104.498 100.545 110.318 94.7252 110.318 87.5455V62.7727C110.318 61.1159 108.975 59.7727 107.318 59.7727C105.661 59.7727 104.318 61.1159 104.318 62.7727V87.5455C104.318 91.4114 101.184 94.5455 97.3182 94.5455H60.6384C60.2353 87.809 57.0514 81.8197 52.2282 77.7153C50.9663 76.6415 49.073 76.794 47.9992 78.0558C46.9254 79.3176 47.0779 81.211 48.3397 82.2847C51.8787 85.2963 54.2324 89.6433 54.624 94.5455H18.7437C19.5268 85.3601 27.6468 78 37.1818 78C37.3376 78 37.4907 77.9881 37.6401 77.9652C44.3723 77.4747 49.6818 71.8574 49.6818 65C49.6818 57.8203 43.8615 52 36.6818 52C29.5021 52 23.6818 57.8203 23.6818 65C23.6818 68.5235 25.0836 71.7195 27.3598 74.061C19.2698 77.5973 13.302 85.3365 12.7273 94.5402C8.98768 94.397 6 91.3201 6 87.5455V38ZM24.25 110C22.5931 110 21.25 111.343 21.25 113C21.25 114.657 22.5931 116 24.25 116H88C89.6569 116 91 114.657 91 113C91 111.343 89.6569 110 88 110H24.25ZM80.6818 27.5C80.6818 26.1193 81.801 25 83.1818 25C84.5625 25 85.6818 26.1193 85.6818 27.5C85.6818 28.8807 84.5625 30 83.1818 30C81.801 30 80.6818 28.8807 80.6818 27.5ZM83.1818 19C78.4873 19 74.6818 22.8056 74.6818 27.5C74.6818 32.1944 78.4873 36 83.1818 36C87.8762 36 91.6818 32.1944 91.6818 27.5C91.6818 22.8056 87.8762 19 83.1818 19ZM104.182 25C102.801 25 101.682 26.1193 101.682 27.5C101.682 28.8807 102.801 30 104.182 30C105.562 30 106.682 28.8807 106.682 27.5C106.682 26.1193 105.562 25 104.182 25ZM95.6818 27.5C95.6818 22.8056 99.4873 19 104.182 19C108.876 19 112.682 22.8056 112.682 27.5C112.682 32.1944 108.876 36 104.182 36C99.4873 36 95.6818 32.1944 95.6818 27.5ZM122.682 27.5C122.682 26.1193 123.801 25 125.182 25C126.562 25 127.682 26.1193 127.682 27.5C127.682 28.8807 126.562 30 125.182 30C123.801 30 122.682 28.8807 122.682 27.5ZM125.182 19C120.487 19 116.682 22.8056 116.682 27.5C116.682 32.1944 120.487 36 125.182 36C129.876 36 133.682 32.1944 133.682 27.5C133.682 22.8056 129.876 19 125.182 19ZM36.6818 58C32.8158 58 29.6818 61.134 29.6818 65C29.6818 68.866 32.8158 72 36.6818 72C40.5478 72 43.6818 68.866 43.6818 65C43.6818 61.134 40.5478 58 36.6818 58Z" fill="#000000"/>
</svg>
