<svg width="110" height="93" viewBox="0 0 110 93" fill="none" xmlns="http://www.w3.org/2000/svg">
<path fill-rule="evenodd" clip-rule="evenodd" d="M54.6459 0C37.7447 0 23.9335 13.23 23.0036 29.8988C9.72494 33.6769 0 45.8919 0 60.3844C0 77.8875 14.1891 92.0765 31.6922 92.0765L31.7914 92.0764H77.5004L77.5996 92.0765C95.1027 92.0765 109.292 77.8875 109.292 60.3844C109.292 45.8919 99.5669 33.6769 86.2882 29.8988C85.3584 13.23 71.5471 0 54.6459 0ZM28.9537 31.6922C28.9537 17.5028 40.4565 6 54.6459 6C68.8353 6 80.3381 17.5028 80.3381 31.6922C80.3381 31.8639 80.3364 32.0353 80.333 32.2063C80.3047 33.6551 81.316 34.9172 82.7363 35.2052C94.4646 37.5835 103.292 47.9564 103.292 60.3844C103.292 74.5737 91.789 86.0765 77.5996 86.0765L77.5108 86.0764H77.5004L31.7914 86.0763L31.781 86.0764L31.6922 86.0765C17.5028 86.0765 6 74.5737 6 60.3844C6 47.9564 14.8272 37.5834 26.5555 35.2052C27.9758 34.9172 28.9871 33.6551 28.9588 32.2063C28.9554 32.0354 28.9537 31.864 28.9537 31.6922ZM54.6459 34.4308C56.3027 34.4308 57.6459 35.774 57.6459 37.4308V51.7768H64.7219C66.4176 51.7768 67.3439 53.7545 66.2583 55.0572L56.1823 67.1484C55.3827 68.1079 53.909 68.1079 53.1094 67.1484L43.0334 55.0572C41.9479 53.7545 42.8742 51.7768 44.5699 51.7768H51.6459V37.4308C51.6459 35.774 52.989 34.4308 54.6459 34.4308Z" fill="#000000"/>
</svg>
